<?xml version="1.0" encoding="UTF-8"?>
<svg version="1.1" xmlns="http://www.w3.org/2000/svg" width="500" height="500">
<path d="M0 0 C0.82724075 -0.00570007 1.65448151 -0.01140015 2.50679016 -0.01727295 C4.26794149 -0.02673823 6.02911064 -0.03326297 7.7902832 -0.03710938 C10.43279234 -0.04667415 13.0744752 -0.0776205 15.71679688 -0.109375 C28.84766932 -0.19354974 42.10455826 0.39226465 53.98828125 6.640625 C54.64699219 6.98134033 55.30570312 7.32205566 55.984375 7.6730957 C75.05660802 18.15866568 85.15331167 39.41447298 91.11328125 59.515625 C94.24998728 70.82763724 95.18103599 81.84363026 95.42578125 93.515625 C95.4630406 95.03597838 95.50064171 96.55632342 95.53857422 98.07666016 C95.81843083 109.78563558 96.01719337 121.49154563 95.80078125 133.203125 C95.78821289 134.05503418 95.77564453 134.90694336 95.76269531 135.78466797 C95.25090009 163.61483852 86.82690909 190.10810478 67.67578125 210.890625 C56.09528705 221.99357305 39.83360565 228.33538107 23.85954285 228.32337952 C22.83020479 228.32466115 22.83020479 228.32466115 21.78007203 228.32596868 C19.48771326 228.32761177 17.19542817 228.32212133 14.90307617 228.31665039 C13.25703941 228.31636824 11.61100251 228.3165268 9.96496582 228.3170929 C5.50051722 228.31737978 1.03609549 228.31150056 -3.42834687 228.30451894 C-8.09551498 228.29826736 -12.7626837 228.29768017 -17.42985535 228.29649353 C-26.26597861 228.29338554 -35.10208951 228.28517931 -43.93820733 228.27514404 C-53.99858967 228.26396639 -64.05897261 228.25846829 -74.11935961 228.25344861 C-94.81265308 228.24299627 -115.5059347 228.22520566 -136.19921875 228.203125 C-135.70421875 234.638125 -135.70421875 234.638125 -135.19921875 241.203125 C-98.23921875 241.533125 -61.27921875 241.863125 -23.19921875 242.203125 C-23.11671875 252.226875 -23.03421875 262.250625 -22.94921875 272.578125 C-22.91280273 275.7239209 -22.87638672 278.8697168 -22.83886719 282.11083984 C-22.82717517 284.6285738 -22.81698456 287.14631537 -22.80859375 289.6640625 C-22.78812988 290.95159424 -22.76766602 292.23912598 -22.74658203 293.56567383 C-22.74246741 304.26987148 -25.00125802 312.57646579 -31.8984375 320.90625 C-44.78678281 333.77271356 -60.94842912 338.89042759 -78.19921875 343.203125 C-79.3903125 343.50347656 -80.58140625 343.80382812 -81.80859375 344.11328125 C-125.60536851 353.97250996 -185.93211751 353.2298954 -225.13671875 328.578125 C-231.68162254 324.31767216 -231.68162254 324.31767216 -234.19921875 322.203125 C-234.19921875 321.543125 -234.19921875 320.883125 -234.19921875 320.203125 C-235.0809375 319.84541016 -235.0809375 319.84541016 -235.98046875 319.48046875 C-238.67719864 317.92794996 -239.9109017 316.30584808 -241.69921875 313.765625 C-242.26640625 312.98316406 -242.83359375 312.20070313 -243.41796875 311.39453125 C-248.30415148 302.64012052 -249.78960995 294.66124155 -249.71679688 284.71777344 C-249.72380615 283.52106522 -249.73081543 282.32435699 -249.73803711 281.09138489 C-249.75252066 277.8409081 -249.74927249 274.59109416 -249.73652077 271.34062862 C-249.72629467 267.91369825 -249.73581366 264.48680785 -249.74206543 261.05987549 C-249.74931813 255.30367248 -249.73982121 249.54767553 -249.72070312 243.79150391 C-249.69898023 237.17547445 -249.70596161 230.55993911 -249.72800875 223.9439218 C-249.74628088 218.22797151 -249.74866275 212.51216826 -249.73825407 206.79619813 C-249.73207805 203.39816615 -249.73101695 200.00036468 -249.74440002 196.60234833 C-249.79206105 178.9682161 -249.82032306 163.55107711 -240.19921875 148.203125 C-239.51870011 146.87680807 -238.84797009 145.54526654 -238.19921875 144.203125 C-237.53921875 144.203125 -236.87921875 144.203125 -236.19921875 144.203125 C-236.19921875 143.543125 -236.19921875 142.883125 -236.19921875 142.203125 C-235.53921875 142.203125 -234.87921875 142.203125 -234.19921875 142.203125 C-234.19921875 141.543125 -234.19921875 140.883125 -234.19921875 140.203125 C-213.70994136 120.45494913 -186.14911323 120.91349191 -159.59315157 120.96306586 C-156.12712548 120.96608305 -152.6611623 120.95383839 -149.19515991 120.9420929 C-137.4360884 120.90468154 -125.6770974 120.88613144 -113.91796875 120.89770508 C-107.39714898 120.90396412 -100.87660553 120.89213433 -94.35585344 120.86125976 C-90.92306753 120.84582774 -87.49082598 120.83935699 -84.05803299 120.85584068 C-56.97166586 121.06468453 -56.97166586 121.06468453 -33.3984375 108.97265625 C-31.19921875 107.203125 -31.19921875 107.203125 -29.03125 106.21484375 C-26.63357008 104.89075185 -26.29483358 103.69629576 -25.19921875 101.203125 C-23.91727261 99.15534091 -22.62445537 97.11434461 -21.32421875 95.078125 C-9.43878893 75.8693225 -10.83466092 54.69849283 -10.59832764 32.82720947 C-10.55776182 29.25320713 -10.50691452 25.67935103 -10.45703125 22.10546875 C-10.36124884 15.13812868 -10.27654417 8.17069379 -10.19921875 1.203125 C-6.99795428 -0.39750724 -3.51745048 0.01878692 0 0 Z M-89.046875 280.4140625 C-92.10121447 285.15605395 -92.69537728 289.64614952 -92.19921875 295.203125 C-89.57510012 301.76342156 -85.65574507 307.14477043 -79.19921875 310.203125 C-73.44694514 310.93698465 -67.41896322 311.29928124 -62.13671875 308.578125 C-58.98545311 306.0302932 -57.17981079 303.72417752 -55.19921875 300.203125 C-54.8434375 299.57921875 -54.48765625 298.9553125 -54.12109375 298.3125 C-52.39871808 294.37147093 -52.58636524 290.40464646 -53.19921875 286.203125 C-55.87306173 279.58163402 -60.71507035 274.69633146 -67.26171875 271.890625 C-76.10495057 269.82093245 -83.56651727 273.27897071 -89.046875 280.4140625 Z " fill="#FED242" transform="translate(387.19921875,133.796875)"/>
<path d="M0 0 C3.16303611 0.01074451 6.32550603 0.00001838 9.48852539 -0.01269531 C26.33539381 -0.02605908 42.82487004 0.83081698 59.22485352 4.94824219 C60.80713745 5.34124512 60.80713745 5.34124512 62.42138672 5.7421875 C79.58994641 10.17194001 95.42567366 16.86914434 107.59985352 30.26074219 C107.59985352 30.92074219 107.59985352 31.58074219 107.59985352 32.26074219 C108.25985352 32.26074219 108.91985352 32.26074219 109.59985352 32.26074219 C110.7420067 34.20912114 111.86265873 36.17010814 112.97485352 38.13574219 C113.60133789 39.22628906 114.22782227 40.31683594 114.87329102 41.44042969 C118.75385498 49.22456758 118.89370051 57.88106781 118.85864258 66.4074707 C118.86389954 68.00730049 118.86389954 68.00730049 118.8692627 69.63945007 C118.87801091 73.13958391 118.8722523 76.63951279 118.86547852 80.13964844 C118.86682784 82.59569843 118.8687706 85.05174816 118.87127686 87.50779724 C118.87421938 92.6495112 118.86996108 97.7911555 118.8605957 102.93286133 C118.849244 109.47985466 118.85573909 116.0266832 118.86774063 122.57367039 C118.87501888 127.64673571 118.87264339 132.71976295 118.86748505 137.79282951 C118.86616279 140.20423337 118.86774557 142.61564084 118.87244415 145.02704048 C118.9381588 188.25477584 118.9381588 188.25477584 105.59985352 204.26074219 C105.02235352 205.10636719 104.44485352 205.95199219 103.84985352 206.82324219 C97.96629857 213.19709338 89.53853663 218.35844569 81.41235352 221.32324219 C80.12264648 221.80470703 80.12264648 221.80470703 78.80688477 222.29589844 C70.45452869 224.80872664 62.28165121 225.645668 53.58813477 225.88964844 C52.36459793 225.92780167 51.1410611 225.9659549 49.88044739 226.00526428 C26.62957867 226.6572574 3.34039917 226.28205273 -19.91601562 226.16479492 C-25.37650265 226.13781192 -30.83694963 226.12091121 -36.29749107 226.10992622 C-38.34689531 226.10379526 -40.39629245 226.09389269 -42.44565773 226.07984734 C-71.60385153 225.84864374 -71.60385153 225.84864374 -97.40014648 238.26074219 C-98.06014648 238.26074219 -98.72014648 238.26074219 -99.40014648 238.26074219 C-100.06014648 239.58074219 -100.72014648 240.90074219 -101.40014648 242.26074219 C-102.06014648 242.26074219 -102.72014648 242.26074219 -103.40014648 242.26074219 C-103.66182617 242.82792969 -103.92350586 243.39511719 -104.19311523 243.97949219 C-105.49795858 246.44560389 -107.03678142 248.53120996 -108.71264648 250.76074219 C-119.42910927 265.89774587 -120.47882705 282.42794707 -120.71655273 300.36230469 C-120.74772438 302.33872452 -120.74772438 302.33872452 -120.77952576 304.35507202 C-120.83418529 307.82370287 -120.88383702 311.29238718 -120.93237305 314.7611084 C-120.98300338 318.31441896 -121.03847051 321.86765386 -121.09350586 325.42089844 C-121.20039875 332.3674472 -121.30199056 339.31406461 -121.40014648 346.26074219 C-128.3193693 346.36283847 -135.23839518 346.43249781 -142.15820312 346.48046875 C-144.50821187 346.50048394 -146.85817144 346.52770463 -149.20800781 346.5625 C-152.60160515 346.61146342 -155.99453945 346.63381278 -159.38842773 346.65136719 C-160.42534256 346.67201233 -161.46225739 346.69265747 -162.53059387 346.71392822 C-177.68025885 346.71850435 -189.33995751 339.29676437 -200.36889648 329.50683594 C-202.4835478 327.16851958 -203.43683699 325.23967209 -204.40014648 322.26074219 C-205.06014648 322.26074219 -205.72014648 322.26074219 -206.40014648 322.26074219 C-214.50821503 308.84118457 -219.62915708 295.45997024 -223.40014648 280.26074219 C-223.7257959 279.03419922 -224.05144531 277.80765625 -224.38696289 276.54394531 C-227.72952409 263.11502865 -227.74813553 249.01307951 -227.71582031 235.25756836 C-227.71266056 232.46070269 -227.73623906 229.66490031 -227.76147461 226.86816406 C-227.87337731 194.73343939 -221.57972223 160.74234397 -198.20874023 137.03808594 C-183.79448887 123.6265651 -167.09197565 119.96635854 -147.97827148 119.94189453 C-146.31208311 119.93258679 -144.64589937 119.92241687 -142.97972107 119.91145325 C-138.47414994 119.8842345 -133.96860993 119.869028 -129.46297836 119.85602522 C-124.74774368 119.84035902 -120.03257222 119.81357996 -115.31738281 119.78799438 C-106.39639092 119.74126827 -97.47538706 119.70449435 -88.55433559 119.67132151 C-78.39469116 119.63305649 -68.23511032 119.58365782 -58.07551956 119.53333735 C-37.18377483 119.43010925 -16.29199019 119.34121415 4.59985352 119.26074219 C4.59985352 114.97074219 4.59985352 110.68074219 4.59985352 106.26074219 C3.21145767 106.2629628 1.82306183 106.26518341 0.39259338 106.26747131 C-12.66031572 106.28769975 -25.71322166 106.30271288 -38.76614285 106.31255436 C-45.47756516 106.31771708 -52.1889758 106.32475931 -58.90039062 106.33618164 C-65.37128385 106.34700783 -71.84216491 106.35301845 -78.31306648 106.35561943 C-80.78793593 106.35747417 -83.26280468 106.36109569 -85.73766899 106.36647224 C-89.19085021 106.37367912 -92.6439805 106.37473328 -96.09716797 106.37426758 C-97.13150467 106.37786285 -98.16584137 106.38145813 -99.23152161 106.38516235 C-100.16686737 106.38378769 -101.10221313 106.38241302 -102.06590271 106.3809967 C-102.88353309 106.3819185 -103.70116346 106.38284029 -104.54357052 106.38379002 C-106.40014648 106.26074219 -106.40014648 106.26074219 -107.40014648 105.26074219 C-107.52038517 103.35076391 -107.57037322 101.43633032 -107.59301758 99.52270508 C-107.60908051 98.29375015 -107.62514343 97.06479523 -107.64169312 95.79859924 C-107.65318739 94.44353936 -107.66379477 93.08847171 -107.67358398 91.73339844 C-107.67890766 91.05174559 -107.68423134 90.37009274 -107.68971634 89.66778374 C-107.71649003 86.051239 -107.7358406 82.43472908 -107.75024414 78.81811523 C-107.76351942 75.8373298 -107.79124386 72.85723943 -107.83227539 69.87670898 C-107.88192158 66.27038758 -107.90640557 62.66469101 -107.91347122 59.05804253 C-107.92013855 57.69023261 -107.93524142 56.32243411 -107.95936203 54.95482063 C-108.14705244 43.65693011 -106.00449976 35.54551806 -98.21264648 27.13574219 C-97.5384668 26.39066406 -96.86428711 25.64558594 -96.16967773 24.87792969 C-94.40014648 23.26074219 -94.40014648 23.26074219 -92.40014648 23.26074219 C-92.40014648 22.60074219 -92.40014648 21.94074219 -92.40014648 21.26074219 C-80.12480964 12.15971504 -66.0867311 7.81661571 -51.40014648 4.26074219 C-50.58545898 4.05578125 -49.77077148 3.85082031 -48.93139648 3.63964844 C-32.97141181 0.01493361 -16.27476621 -0.06554782 0 0 Z M-74.40014648 45.26074219 C-78.09762667 50.61571349 -78.05849132 55.97825143 -77.40014648 62.26074219 C-75.63104993 68.01030599 -71.51700107 72.20740601 -66.40014648 75.26074219 C-58.83408929 77.27549963 -53.07843866 76.24701996 -46.27514648 72.57324219 C-41.54273537 68.7667376 -39.41639876 64.70809663 -38.46264648 58.82324219 C-38.02877959 52.61153807 -39.7942924 48.11365074 -43.83764648 43.44824219 C-49.49448569 38.61923311 -52.6808285 36.91820248 -60.31420898 37.04589844 C-66.39911277 37.67262074 -70.57409506 40.69073631 -74.40014648 45.26074219 Z " fill="#3873A4" transform="translate(245.400146484375,17.7392578125)"/>
<path d="M0 0 C1.26654356 0.00184359 2.53308712 0.00368717 3.83801079 0.00558662 C4.89413057 0.00302335 4.89413057 0.00302335 5.97158611 0.00040829 C8.34243597 -0.00289886 10.71300588 0.00813701 13.08382988 0.01904488 C14.77868455 0.01960873 16.47353971 0.01929294 18.16839409 0.01815987 C22.77974132 0.01758433 27.39098522 0.02937106 32.00230837 0.04330778 C36.81763407 0.05578174 41.63296195 0.056983 46.44830132 0.0593586 C55.57141082 0.0655832 64.69447258 0.08200723 73.81756103 0.10205758 C84.20192552 0.12438614 94.58629225 0.13540234 104.97067475 0.14544845 C126.33638205 0.16637263 147.70204632 0.2015676 169.0677166 0.24609566 C169.0677166 0.57609566 169.0677166 0.90609566 169.0677166 1.24609566 C165.03092742 2.20828752 161.2712732 2.36946422 157.1264782 2.36635017 C156.44025283 2.3672046 155.75402746 2.36805902 155.04700738 2.36893934 C152.75464861 2.37058243 150.46236352 2.36509199 148.17001152 2.35962105 C146.52397475 2.3593389 144.87793786 2.35949746 143.23190117 2.36006355 C138.76745257 2.36035044 134.30303084 2.35447122 129.83858848 2.3474896 C125.17142037 2.34123802 120.50425165 2.34065083 115.83708 2.33946419 C107.00095673 2.3363562 98.16484584 2.32814997 89.32872802 2.3181147 C79.26834568 2.30693705 69.20796274 2.30143894 59.14757574 2.29641926 C38.45428226 2.28596693 17.76100065 2.26817632 -2.9322834 2.24609566 C-2.6022834 6.53609566 -2.2722834 10.82609566 -1.9322834 15.24609566 C35.0277166 15.57609566 71.9877166 15.90609566 110.0677166 16.24609566 C110.1502166 26.26984566 110.2327166 36.29359566 110.3177166 46.62109566 C110.35413261 49.76689156 110.39054863 52.91268745 110.42806816 56.1538105 C110.43976018 58.67154446 110.44995079 61.18928603 110.4583416 63.70703316 C110.47880547 64.9945649 110.49926933 66.28209663 110.52035332 67.60864449 C110.52372391 76.37724293 109.69096971 84.01896703 103.8177166 90.87109566 C102.9514666 91.55172066 102.9514666 91.55172066 102.0677166 92.24609566 C102.0677166 90.92609566 102.0677166 89.60609566 102.0677166 88.24609566 C102.7277166 88.24609566 103.3877166 88.24609566 104.0677166 88.24609566 C104.20114967 87.66657646 104.33458275 87.08705727 104.47205925 86.48997688 C105.03966816 84.35175601 105.78922694 82.40028039 106.59823418 80.34399605 C108.65747194 74.20195275 108.54585414 68.10290939 108.57943535 61.67968941 C108.60636215 59.76773529 108.60636215 59.76773529 108.63383293 57.81715584 C108.67858693 54.45854497 108.71101227 51.10029087 108.73727226 47.74151802 C108.76726224 44.30215726 108.81372822 40.8630213 108.85873222 37.42383003 C108.94344103 30.69802319 109.0118794 23.97220086 109.0677166 17.24609566 C108.48626664 17.24701745 107.90481668 17.24793924 107.30574703 17.24888897 C93.17697414 17.27094506 79.04820382 17.28750763 64.91941738 17.29790783 C58.08692686 17.30307058 51.25444781 17.31011289 44.42196465 17.32153511 C37.83436355 17.33254273 31.24677129 17.33837189 24.65916061 17.3409729 C22.13963381 17.34282766 19.62010769 17.34644923 17.10058594 17.35182571 C13.58513895 17.35903241 10.06974199 17.36008676 6.55428886 17.35962105 C5.50125069 17.36321632 4.44821251 17.3668116 3.36326408 17.37051582 C2.41109001 17.36914116 1.45891594 17.36776649 0.47788811 17.36635017 C-0.77068049 17.36773286 -0.77068049 17.36773286 -2.04447269 17.36914349 C-3.9322834 17.24609566 -3.9322834 17.24609566 -4.9322834 16.24609566 C-5.05785503 13.93616183 -5.10804069 11.62191029 -5.1197834 9.30859566 C-5.13396309 8.04144722 -5.14814278 6.77429878 -5.16275215 5.46875191 C-4.86131403 1.25372737 -4.24301758 0.35610071 0 0 Z " fill="#F7DF89" transform="translate(253.93228340148926,359.75390434265137)"/>
<path d="M0 0 C1.24086113 -0.00855011 1.24086113 -0.00855011 2.50679016 -0.01727295 C4.26794149 -0.02673823 6.02911064 -0.03326297 7.7902832 -0.03710938 C10.43279234 -0.04667415 13.0744752 -0.0776205 15.71679688 -0.109375 C29.25176304 -0.19678337 42.38850556 0.54434944 54.55078125 7.140625 C55.22109375 7.47513672 55.89140625 7.80964844 56.58203125 8.15429688 C60.16864222 10.01574797 62.70521554 11.70790905 64.80078125 15.203125 C64.14078125 15.533125 63.48078125 15.863125 62.80078125 16.203125 C62.80078125 15.543125 62.80078125 14.883125 62.80078125 14.203125 C61.15078125 14.533125 59.50078125 14.863125 57.80078125 15.203125 C54.80078125 11.453125 54.80078125 11.453125 54.80078125 9.203125 C52.80609243 8.52073146 50.80420859 7.85942016 48.80078125 7.203125 C48.08507965 6.95169235 47.36937805 6.7002597 46.63198853 6.44120789 C40.34910831 4.35845531 34.78956856 3.79812256 28.19921875 3.91015625 C26.755504 3.91652351 26.755504 3.91652351 25.28262329 3.92301941 C22.24670921 3.93964225 19.21149037 3.97726244 16.17578125 4.015625 C14.10157217 4.03069307 12.02735256 4.04437773 9.953125 4.05664062 C4.90208105 4.08949181 -0.1484515 4.14115824 -5.19921875 4.203125 C-7.24870542 12.03266612 -7.37636635 19.84052249 -7.48046875 27.88671875 C-7.51822519 30.13476569 -7.55598572 32.38281256 -7.59375 34.63085938 C-7.64760656 38.15549968 -7.69979829 41.68016093 -7.75146484 45.20483398 C-7.80298689 48.619706 -7.86026434 52.03444653 -7.91796875 55.44921875 C-7.93154419 56.51264999 -7.94511963 57.57608124 -7.95910645 58.67173767 C-7.97582397 59.6468782 -7.9925415 60.62201874 -8.00976562 61.62670898 C-8.0222937 62.48860336 -8.03482178 63.35049774 -8.04772949 64.23851013 C-8.19921875 66.203125 -8.19921875 66.203125 -9.19921875 67.203125 C-9.35908857 68.88767921 -9.4766247 70.57631844 -9.57421875 72.265625 C-9.93299362 76.67343054 -10.72130943 80.22325881 -12.43359375 84.27734375 C-13.7143502 87.49883829 -14.41631554 90.83061885 -15.19921875 94.203125 C-16.18921875 94.203125 -17.17921875 94.203125 -18.19921875 94.203125 C-18.52921875 95.193125 -18.85921875 96.183125 -19.19921875 97.203125 C-19.85921875 97.203125 -20.51921875 97.203125 -21.19921875 97.203125 C-20.07307686 94.20007997 -18.77592095 91.39767392 -17.26171875 88.578125 C-10.85226244 75.83096002 -11.0652644 61.73203489 -10.8828125 47.78515625 C-10.86218291 46.43323723 -10.84118516 45.08132379 -10.81983948 43.72941589 C-10.76523748 40.20983459 -10.71556149 36.69020125 -10.66699219 33.17053223 C-10.61631859 29.5635121 -10.56087453 25.95656543 -10.50585938 22.34960938 C-10.39903737 15.30084521 -10.29743119 8.25201482 -10.19921875 1.203125 C-6.99795428 -0.39750724 -3.51745048 0.01878692 0 0 Z " fill="#F3E294" transform="translate(387.19921875,133.796875)"/>
<path d="M0 0 C0.99 0.495 0.99 0.495 2 1 C1 2.4375 1 2.4375 -1 4 C-2.91619336 4.28271705 -4.83678219 4.56409943 -6.76953125 4.69140625 C-9.07947674 4.9129393 -9.07947674 4.9129393 -11.37315369 6.00134277 C-16.66565454 7.45864032 -21.79436275 7.29174339 -27.26000977 7.28710938 C-28.49155792 7.29394241 -29.72310608 7.30077545 -30.99197388 7.30781555 C-33.66188019 7.32138946 -36.33152517 7.33144182 -39.00143623 7.33552551 C-43.22498613 7.34226033 -47.44837767 7.36403826 -51.67185974 7.38806152 C-61.39752346 7.4411011 -71.12323591 7.47455656 -80.84898376 7.50782013 C-89.76817288 7.53852297 -98.68729375 7.57337612 -107.60639423 7.62413073 C-111.80319531 7.64744665 -115.9998856 7.66121186 -120.19674504 7.66762543 C-123.42099716 7.67496567 -126.64517669 7.69497616 -129.86938477 7.71289062 C-131.02952591 7.71190872 -132.18966705 7.71092682 -133.38496399 7.70991516 C-134.45176392 7.71818832 -135.51856384 7.72646149 -136.61769104 7.73498535 C-137.54183084 7.73791847 -138.46597063 7.74085159 -139.41811466 7.7438736 C-142.26196943 8.02598771 -144.39514951 8.8538056 -147 10 C-148.65718454 10.39617068 -150.32483017 10.75102311 -152 11.0625 C-152.825 11.21847656 -153.65 11.37445313 -154.5 11.53515625 C-155.325 11.68855469 -156.15 11.84195312 -157 12 C-160.97632808 12.76822413 -164.89105269 13.70206879 -168.81640625 14.6953125 C-171.18172125 15.02535645 -172.74405968 14.72640255 -175 14 C-160.27405621 6.39660453 -144.87596798 4.85053341 -128.54223633 4.8581543 C-126.71594193 4.85294266 -126.71594193 4.85294266 -124.85275269 4.84762573 C-122.22063981 4.84030075 -119.5885767 4.83461237 -116.95646095 4.83133507 C-112.78064053 4.82537157 -108.60490296 4.80878105 -104.42912292 4.78999329 C-102.99301247 4.7836573 -101.55690198 4.77733166 -100.12079144 4.77101612 C-99.40196486 4.76785031 -98.68313828 4.7646845 -97.94252908 4.76142275 C-88.2357077 4.71953588 -78.52892731 4.68639404 -68.82202148 4.67407227 C-62.25404045 4.66564992 -55.68626791 4.64301082 -49.11839122 4.6047166 C-45.65384884 4.58510391 -42.189617 4.57250161 -38.72501564 4.57755089 C-20.16554337 4.87469254 -20.16554337 4.87469254 -2.2441864 0.75715637 C-1.50360489 0.50729477 -0.76302338 0.25743317 0 0 Z " fill="#F4E5B5" transform="translate(342,250)"/>
<path d="M0 0 C0.33 0.66 0.66 1.32 1 2 C0.29764547 3.81960204 -0.48882657 5.60700239 -1.3125 7.375 C-3.52789819 12.51570299 -4.84367312 17.21137291 -5.55889893 22.75222778 C-5.83396544 24.77750823 -6.14424872 26.79869378 -6.50750732 28.81002808 C-8.52942535 40.55971732 -8.29003624 52.30873589 -8.265625 64.1953125 C-8.26697448 66.51984701 -8.26891737 68.84438124 -8.27142334 71.16891479 C-8.2743554 76.01172607 -8.27013513 80.85446305 -8.26074219 85.69726562 C-8.24928476 91.90688466 -8.25595883 98.11633198 -8.26788712 104.3259449 C-8.27510328 109.1128164 -8.27282 113.89964691 -8.26763153 118.68651962 C-8.26629766 120.97748714 -8.26793355 123.26845837 -8.27259064 125.55942154 C-8.27765875 128.74951363 -8.26994433 131.93932352 -8.25878906 135.12939453 C-8.26283752 136.07484634 -8.26688599 137.02029816 -8.27105713 137.99440002 C-8.26541748 138.86315262 -8.25977783 139.73190521 -8.25396729 140.62698364 C-8.25321323 141.37941912 -8.25245918 142.13185459 -8.25168228 142.90709114 C-7.96211026 145.31507889 -7.15166721 146.87944533 -6 149 C-4.65056091 153.12328612 -3.73653264 156.65278863 -4 161 C-3.01 161.33 -2.02 161.66 -1 162 C-0.66666667 163.33333333 -0.33333333 164.66666667 0 166 C0.99 166.33 1.98 166.66 3 167 C4 168 5 169 6 170 C6.66 170 7.32 170 8 170 C8.33 171.65 8.66 173.3 9 175 C8.34 175.33 7.68 175.66 7 176 C6.34 175.67 5.68 175.34 5 175 C5 174.34 5 173.68 5 173 C4.4121875 172.76152344 3.824375 172.52304687 3.21875 172.27734375 C0.52202011 170.72482496 -0.71168295 169.10272308 -2.5 166.5625 C-3.0671875 165.78003906 -3.634375 164.99757813 -4.21875 164.19140625 C-9.10493273 155.43699552 -10.5903912 147.45811655 -10.51757812 137.51464844 C-10.5245874 136.31794022 -10.53159668 135.12123199 -10.53881836 133.88825989 C-10.55330191 130.6377831 -10.55005374 127.38796916 -10.53730202 124.13750362 C-10.52707592 120.71057325 -10.53659491 117.28368285 -10.54284668 113.85675049 C-10.55009938 108.10054748 -10.54060246 102.34455053 -10.52148438 96.58837891 C-10.49976148 89.97234945 -10.50674286 83.35681411 -10.52879 76.7407968 C-10.54706213 71.02484651 -10.549444 65.30904326 -10.53903532 59.59307313 C-10.5328593 56.19504115 -10.5317982 52.79723968 -10.54518127 49.39922333 C-10.63783992 15.11639007 -10.63783992 15.11639007 -1 1 C-0.67 0.67 -0.34 0.34 0 0 Z " fill="#E8D36D" transform="translate(148,281)"/>
<path d="M0 0 C9.44958827 14.17438241 6.82862825 36.67292094 6.9810791 53.05895996 C6.99833061 54.82874247 7.02178246 56.59846178 7.04589844 58.36816406 C7.5055656 92.97773762 7.5055656 92.97773762 4 107 C3.67 107 3.34 107 3 107 C3 76.64 3 46.28 3 15 C2.34 15 1.68 15 1 15 C0.15318867 9.91913204 -0.09038099 5.15171623 0 0 Z " fill="#F3D57B" transform="translate(476,190)"/>
<path d="M0 0 C0.99 0.33 1.98 0.66 3 1 C4.41687119 5.25061356 3.19320039 7.71851625 2 12 C2.99 12.495 2.99 12.495 4 13 C3.34 13.99 2.68 14.98 2 16 C-0.91666603 16.36914349 -0.91666603 16.36914349 -4.73233032 16.36076355 C-5.43232663 16.36332682 -6.13232293 16.3658901 -6.85353124 16.36853105 C-9.21069033 16.37349194 -11.56721585 16.35693883 -13.92431641 16.34057617 C-15.6093189 16.33973039 -17.2943225 16.34020408 -18.97932434 16.34190369 C-23.56386658 16.34276699 -28.14817495 16.32508715 -32.73266268 16.30418181 C-37.51995449 16.28547074 -42.30725124 16.28366898 -47.09457397 16.28010559 C-56.16458849 16.27076871 -65.23449497 16.24613276 -74.30446184 16.21605712 C-84.62835945 16.18256415 -94.95226214 16.16603996 -105.27620053 16.15097082 C-126.5175274 16.11958459 -147.75875691 16.06679225 -169 16 C-169 15.67 -169 15.34 -169 15 C-164.65900613 14.1723192 -160.54492762 13.86574767 -156.12832642 13.84178162 C-155.46166438 13.83684364 -154.79500235 13.83190566 -154.10813844 13.82681805 C-151.88801262 13.81153523 -149.66791551 13.80310763 -147.44775391 13.79467773 C-145.85082754 13.78509195 -144.25390368 13.77508146 -142.65698242 13.76467896 C-138.33104544 13.73769971 -134.00509763 13.71665246 -129.6791234 13.69667697 C-125.15474517 13.67477425 -120.63040006 13.64740657 -116.10604858 13.62062073 C-107.54268565 13.57075172 -98.97930428 13.52579145 -90.41590536 13.48259836 C-80.66502298 13.43317643 -70.91417384 13.37827671 -61.16332364 13.32291877 C-41.10891324 13.20918766 -21.05447056 13.10252367 -1 13 C-0.67 8.71 -0.34 4.42 0 0 Z " fill="#457292" transform="translate(251,124)"/>
<path d="M0 0 C14.85 0 29.7 0 45 0 C45 0.33 45 0.66 45 1 C31.47 1.33 17.94 1.66 4 2 C2.02848006 9.88607976 1.82339936 17.59512175 1.71875 25.68359375 C1.68099356 27.93164069 1.64323303 30.17968756 1.60546875 32.42773438 C1.55161219 35.95237468 1.49942046 39.47703593 1.44775391 43.00170898 C1.39623186 46.416581 1.33895441 49.83132153 1.28125 53.24609375 C1.26767456 54.30952499 1.25409912 55.37295624 1.2401123 56.46861267 C1.22339478 57.4437532 1.20667725 58.41889374 1.18945312 59.42358398 C1.17692505 60.28547836 1.16439697 61.14737274 1.15148926 62.03538513 C1 64 1 64 0 65 C-0.15986982 66.68455421 -0.27740595 68.37319344 -0.375 70.0625 C-0.73377487 74.47030554 -1.52209068 78.02013381 -3.234375 82.07421875 C-4.51513145 85.29571329 -5.21709679 88.62749385 -6 92 C-6.99 92 -7.98 92 -9 92 C-9.33 92.99 -9.66 93.98 -10 95 C-10.66 95 -11.32 95 -12 95 C-10.87385811 91.99695497 -9.5767022 89.19454892 -8.0625 86.375 C-4.22340979 78.73979448 -2.72837333 70.78859161 -2.2109375 62.3125 C-2 60 -2 60 -1 57 C-0.88373271 55.14471321 -0.82339944 53.2857064 -0.79467773 51.42700195 C-0.77473251 50.28604568 -0.75478729 49.14508942 -0.73423767 47.96955872 C-0.71752518 46.73823715 -0.70081268 45.50691559 -0.68359375 44.23828125 C-0.6524221 42.34688667 -0.6524221 42.34688667 -0.62062073 40.4172821 C-0.56627878 37.06854542 -0.51603834 33.71979795 -0.46777344 30.37097168 C-0.41749643 26.9523378 -0.36189467 23.53379083 -0.30664062 20.11523438 C-0.19865958 13.41022297 -0.09957114 6.70516272 0 0 Z " fill="#F2D960" transform="translate(378,136)"/>
<path d="M0 0 C2.60452271 0.14086602 5.20850197 0.28748464 7.8125 0.4375 C8.91948242 0.49647461 8.91948242 0.49647461 10.04882812 0.55664062 C13.23071342 0.74381035 15.96162378 0.98720793 19 2 C29.62780142 3.49106468 40.48090528 3.19710413 51.1875 3.1875 C52.57572968 3.18808914 52.57572968 3.18808914 53.99200439 3.18869019 C77.21154357 3.71104673 77.21154357 3.71104673 100.03955078 0.47045898 C103.018872 -0.2445039 105.95176719 -0.05861986 109 0 C81.70581496 15.13442782 29.2776901 7.93784126 0 1 C0 0.67 0 0.34 0 0 Z " fill="#F5E39E" transform="translate(200,476)"/>
<path d="M0 0 C29.04 0 58.08 0 88 0 C88 0.33 88 0.66 88 1 C81.46671327 2.06665906 75.1017543 2.04558536 68.48828125 1.9375 C65.11938442 1.8938786 65.11938442 1.8938786 62.34765625 2.53125 C59.00211267 3.19924539 56.04278824 2.62984785 52.6953125 2.15625 C49.91353691 1.89926675 49.91353691 1.89926675 46.84765625 2.49609375 C41.92862762 3.14031171 37.25241006 2.85088618 32.3125 2.5625 C21.53086559 2.00586557 10.79348977 1.89360196 0 2 C0 1.34 0 0.68 0 0 Z " fill="#FDD757" transform="translate(200,257)"/>
<path d="M0 0 C0.33 0 0.66 0 1 0 C1 21.12 1 42.24 1 64 C-10.0446875 64.061875 -10.0446875 64.061875 -21.3125 64.125 C-23.63450439 64.14320801 -25.95650879 64.16141602 -28.34887695 64.18017578 C-30.18700936 64.18601638 -32.02514436 64.19111296 -33.86328125 64.1953125 C-35.29770569 64.2106604 -35.29770569 64.2106604 -36.7611084 64.22631836 C-37.6743689 64.22656006 -38.58762939 64.22680176 -39.52856445 64.22705078 C-40.32132278 64.231492 -41.11408112 64.23593323 -41.93086243 64.24050903 C-44 64 -44 64 -47 62 C-45.58690552 62.00785522 -45.58690552 62.00785522 -44.14526367 62.01586914 C-40.59854501 62.03306826 -37.05187167 62.04552583 -33.50512695 62.05493164 C-31.97972914 62.05991292 -30.45433599 62.06670038 -28.92895508 62.07543945 C-14.2657873 62.58095789 -14.2657873 62.58095789 0 60 C0 58.02 0 56.04 0 54 C-0.99 53.505 -0.99 53.505 -2 53 C-1.67 52.67 -1.34 52.34 -1 52 C-0.91226726 50.58869395 -0.89305129 49.17303301 -0.90234375 47.7590332 C-0.90729858 46.40676384 -0.90729858 46.40676384 -0.91235352 45.0271759 C-0.92065186 44.04496567 -0.9289502 43.06275543 -0.9375 42.05078125 C-0.94128662 41.04540817 -0.94507324 40.0400351 -0.94897461 39.00419617 C-0.96536886 34.68642277 -0.99335846 30.36874247 -1.02050781 26.05102539 C-1.03863024 22.90511515 -1.05070729 19.75922058 -1.0625 16.61328125 C-1.07079834 15.64119217 -1.07909668 14.66910309 -1.08764648 13.66755676 C-1.1044897 8.99035483 -0.97675293 4.6006409 0 0 Z " fill="#3E6D90" transform="translate(122,300)"/>
<path d="M0 0 C-3.40238839 2.06104625 -6.01670186 2.2436273 -9.96191406 2.22705078 C-11.76332855 2.22682419 -11.76332855 2.22682419 -13.60113525 2.22659302 C-14.89291687 2.21627045 -16.18469849 2.20594788 -17.515625 2.1953125 C-18.85512073 2.19158034 -20.19461921 2.18873432 -21.53411865 2.18673706 C-25.05228265 2.17911657 -28.5702804 2.15948187 -32.08837891 2.1373291 C-35.68129223 2.11683643 -39.27423253 2.10772804 -42.8671875 2.09765625 C-49.91152617 2.07623434 -56.95575221 2.04211765 -64 2 C-64.33 1.34 -64.66 0.68 -65 0 C-43.31050258 -1.44596649 -21.70427125 -0.69078981 0 0 Z " fill="#79A6B9" transform="translate(286,242)"/>
<path d="M0 0 C0.33 0 0.66 0 1 0 C1.07476562 0.71285156 1.14953125 1.42570312 1.2265625 2.16015625 C2.17104778 9.04008333 3.71269933 13.3853839 9 18 C13.39044492 20.92696328 17.79655834 20.95533526 23 21 C26.39494261 20.26092952 26.39494261 20.26092952 29 19 C29.99 18.67 30.98 18.34 32 18 C32 18.66 32 19.32 32 20 C31.34 20 30.68 20 30 20 C30 20.66 30 21.32 30 22 C25.2309364 23.87917577 20.88583452 24.33587942 15.8125 24.3125 C14.74612305 24.33666992 14.74612305 24.33666992 13.65820312 24.36132812 C8.47916687 24.36620022 8.47916687 24.36620022 6.01171875 22.48046875 C5.67785156 21.99191406 5.34398437 21.50335938 5 21 C4.67 21.66 4.34 22.32 4 23 C1.37613513 19.93882432 1 19.26826873 1 15 C0.34 14.01 -0.32 13.02 -1 12 C-0.9765625 9.08203125 -0.9765625 9.08203125 -0.625 5.8125 C-0.51414063 4.72582031 -0.40328125 3.63914062 -0.2890625 2.51953125 C-0.19367188 1.68808594 -0.09828125 0.85664062 0 0 Z " fill="#3D7AAC" transform="translate(167,72)"/>
<path d="M0 0 C0.66 0.33 1.32 0.66 2 1 C0.63016497 4.16115776 0.0109362 4.9927092 -3 7 C-3.99 7 -4.98 7 -6 7 C-6.144375 7.763125 -6.28875 8.52625 -6.4375 9.3125 C-7 12 -7 12 -8 15 C-9.43534841 15.2226746 -10.87345525 15.42761906 -12.3125 15.625 C-13.11300781 15.74101562 -13.91351563 15.85703125 -14.73828125 15.9765625 C-17 16 -17 16 -20 14 C-14.40412644 8.66870675 -8.94220957 4.41973537 -2 1 C-1.34 0.67 -0.68 0.34 0 0 Z " fill="#3A79AE" transform="translate(65,143)"/>
<path d="M0 0 C0.33 0.66 0.66 1.32 1 2 C1.66 2.33 2.32 2.66 3 3 C2.01 3.66 1.02 4.32 0 5 C0.99 6.32 1.98 7.64 3 9 C2.236875 9.391875 1.47375 9.78375 0.6875 10.1875 C-2.26995602 12.18206337 -3.24142728 13.9624653 -5 17 C-5.99 17.33 -6.98 17.66 -8 18 C-8 17.34 -8 16.68 -8 16 C-8.66 16 -9.32 16 -10 16 C-10.33 18.31 -10.66 20.62 -11 23 C-11.99 23 -12.98 23 -14 23 C-11.38025389 14.2244958 -6.05390038 6.78770649 0 0 Z " fill="#3879B1" transform="translate(44,158)"/>
<path d="M0 0 C-0.33 0.99 -0.66 1.98 -1 3 C-1.65226562 3.12117188 -2.30453125 3.24234375 -2.9765625 3.3671875 C-3.85054687 3.53476562 -4.72453125 3.70234375 -5.625 3.875 C-6.91277344 4.11863281 -6.91277344 4.11863281 -8.2265625 4.3671875 C-11.03831045 4.95183487 -11.03831045 4.95183487 -13.8125 6 C-17.65636545 7.20591857 -21.38294206 7.68464641 -25.375 8.125 C-26.47908203 8.25455078 -26.47908203 8.25455078 -27.60546875 8.38671875 C-29.40299182 8.59681885 -31.20141342 8.79920767 -33 9 C-31.38044954 5.76089908 -28.36386066 5.27370989 -25.08984375 4.01953125 C-16.92084393 1.32407113 -8.61899129 -0.51713948 0 0 Z " fill="#F9DD5C" transform="translate(200,256)"/>
<path d="M0 0 C0.33 0.66 0.66 1.32 1 2 C0.29764547 3.81960204 -0.48882657 5.60700239 -1.3125 7.375 C-3.98432621 13.57481773 -5.15687958 19.33689303 -6 26 C-6.37318609 28.58359599 -6.74819394 31.16692948 -7.125 33.75 C-7.41808173 35.83313473 -7.71026818 37.9163967 -8 40 C-8.33 40 -8.66 40 -9 40 C-11.29509056 26.22945665 -8.99658639 12.71247225 -1 1 C-0.67 0.67 -0.34 0.34 0 0 Z " fill="#F5E379" transform="translate(148,281)"/>
<path d="M0 0 C1.42757786 2.85515572 0.32725375 4.73865575 -0.45777893 7.6937561 C-2.47642986 16.27974002 -2.20023705 25.33759602 -2.31640625 34.1015625 C-2.33718735 35.41917572 -2.35796844 36.73678894 -2.37937927 38.09432983 C-2.43403881 41.56296069 -2.48369054 45.03164499 -2.53222656 48.50036621 C-2.5828569 52.05367677 -2.63832403 55.60691167 -2.69335938 59.16015625 C-2.80025226 66.10670501 -2.90184407 73.05332243 -3 80 C-3.33 80 -3.66 80 -4 80 C-4.02316953 70.81183669 -4.04093864 61.62368343 -4.05181217 52.43549728 C-4.05703089 48.16906452 -4.06411023 43.90265173 -4.07543945 39.63623047 C-4.0863042 35.51896213 -4.09228446 31.40171302 -4.09487724 27.28443146 C-4.09672501 25.71356148 -4.10033321 24.14269255 -4.10573006 22.57183075 C-4.11298806 20.37175725 -4.11398893 18.17176323 -4.11352539 15.97167969 C-4.11685631 14.0930423 -4.11685631 14.0930423 -4.12025452 12.17645264 C-4.02163406 9.57145115 -3.77790761 7.46874832 -3 5 C-2.34 5 -1.68 5 -1 5 C-0.67 3.35 -0.34 1.7 0 0 Z " fill="#6E97B0" transform="translate(127,284)"/>
<path d="M0 0 C2.22855574 -0.0814222 4.45797655 -0.13938079 6.6875 -0.1875 C8.54955078 -0.23970703 8.54955078 -0.23970703 10.44921875 -0.29296875 C14.24579271 0.02027993 16.07767075 0.5873163 19 3 C19.8125 5.1875 19.8125 5.1875 20 7 C19.5153125 6.72285156 19.030625 6.44570313 18.53125 6.16015625 C12.98865464 3.16502299 7.98063858 0.92469327 1.671875 2.62890625 C-4.81440255 5.19549621 -8.4320416 8.49075978 -11.3125 14.9375 C-12.38785374 19.72771214 -12.50595563 24.29388867 -11 29 C-11.99 28.67 -12.98 28.34 -14 28 C-14.19818283 21.29481414 -14.30844801 15.34823202 -12 9 C-11.34 9 -10.68 9 -10 9 C-10 8.34 -10 7.68 -10 7 C-9.34 7 -8.68 7 -8 7 C-8 5.68 -8 4.36 -8 3 C-5.36 2.67 -2.72 2.34 0 2 C0 1.34 0 0.68 0 0 Z " fill="#F5DC81" transform="translate(308,404)"/>
<path d="M0 0 C1.32 0.66 2.64 1.32 4 2 C-2.25357801 9.00400737 -12.35199109 13.61708414 -21.6875 14.25 C-22.450625 14.1675 -23.21375 14.085 -24 14 C-24.33 13.34 -24.66 12.68 -25 12 C-22.36 11.67 -19.72 11.34 -17 11 C-16.34 9.35 -15.68 7.7 -15 6 C-13.33333333 6 -11.66666667 6 -10 6 C-8.62361068 5.8452253 -7.248676 5.67724852 -5.875 5.5 C-3.956875 5.2525 -3.956875 5.2525 -2 5 C-2 4.34 -2 3.68 -2 3 C-1.34 3 -0.68 3 0 3 C0 2.01 0 1.02 0 0 Z " fill="#547F9D" transform="translate(339,227)"/>
<path d="M0 0 C0.66 0 1.32 0 2 0 C4.80041057 5.00073317 6.34821126 10.25451416 6 16 C6.99 16.33 7.98 16.66 9 17 C9.33333333 18.33333333 9.66666667 19.66666667 10 21 C10.99 21.33 11.98 21.66 13 22 C14 23 15 24 16 25 C16.66 25 17.32 25 18 25 C18.33 26.65 18.66 28.3 19 30 C18.34 30.33 17.68 30.66 17 31 C16.34 30.67 15.68 30.34 15 30 C15 29.34 15 28.68 15 28 C14.11828125 27.64228516 14.11828125 27.64228516 13.21875 27.27734375 C6.44380538 23.37697951 3.11351343 14.58095646 0.62890625 7.54296875 C-0.01756473 4.92897742 -0.12035123 2.68142541 0 0 Z " fill="#F5E183" transform="translate(138,426)"/>
<path d="M0 0 C0.33 0 0.66 0 1 0 C1.09315209 7.65019455 1.16399231 15.30032944 1.20724869 22.95096397 C1.22802189 26.50446139 1.25614773 30.05756754 1.30175781 33.61083984 C1.35399721 37.70674143 1.37302984 41.80223942 1.390625 45.8984375 C1.41127014 47.1592514 1.43191528 48.42006531 1.45318604 49.71908569 C1.45535804 58.34954225 0.52445625 65.88813437 -5.25 72.625 C-6.11625 73.305625 -6.11625 73.305625 -7 74 C-7 72.68 -7 71.36 -7 70 C-6.34 70 -5.68 70 -5 70 C-4.86656693 69.42076279 -4.73313385 68.84152557 -4.59565735 68.24473572 C-4.0273096 66.10291629 -3.27779031 64.14481991 -2.46948242 62.08422852 C-0.43310919 56.01100158 -0.52209715 50.00469563 -0.48828125 43.65234375 C-0.46135445 41.7736837 -0.46135445 41.7736837 -0.43388367 39.85707092 C-0.38913811 36.55770749 -0.35670763 33.2585366 -0.33044434 29.95898438 C-0.30044923 26.57994443 -0.25398508 23.20113315 -0.20898438 19.82226562 C-0.12428614 13.21495018 -0.05584362 6.60761896 0 0 Z " fill="#E7CF79" transform="translate(363,378)"/>
<path d="M0 0 C2.31 0 4.62 0 7 0 C4.87229133 2.36412074 3.37702905 3.85636989 0.375 5 C-2.15796053 5.79612938 -2.15796053 5.79612938 -3.3125 8.125 C-3.539375 8.74375 -3.76625 9.3625 -4 10 C-4.66 10 -5.32 10 -6 10 C-6.25652344 10.55171875 -6.51304687 11.1034375 -6.77734375 11.671875 C-8.18626158 14.35467062 -9.82450009 16.76817968 -11.5625 19.25 C-12.18253906 20.14203125 -12.80257812 21.0340625 -13.44140625 21.953125 C-14.21291016 22.96632813 -14.21291016 22.96632813 -15 24 C-15.33 24 -15.66 24 -16 24 C-16.25 21.25 -16.25 21.25 -16 18 C-14.0625 15.75 -14.0625 15.75 -12 14 C-11.67 13.34 -11.34 12.68 -11 12 C-10.01 12 -9.02 12 -8 12 C-8 11.01 -8 10.02 -8 9 C-7.34 9 -6.68 9 -6 9 C-5.7525 8.401875 -5.505 7.80375 -5.25 7.1875 C-3.83555909 4.71222841 -2.27139812 3.66569196 0 2 C0 1.34 0 0.68 0 0 Z " fill="#7897B1" transform="translate(148,250)"/>
<path d="M0 0 C0.66 0.33 1.32 0.66 2 1 C1.67 1.33 1.34 1.66 1 2 C0.89993353 4.00189582 0.86918889 6.00732454 0.8671875 8.01171875 C0.86589844 9.24470703 0.86460937 10.47769531 0.86328125 11.74804688 C0.86714844 13.04806641 0.87101562 14.34808594 0.875 15.6875 C0.87113281 16.96818359 0.86726563 18.24886719 0.86328125 19.56835938 C0.86457031 20.80779297 0.86585938 22.04722656 0.8671875 23.32421875 C0.86831543 24.45947998 0.86944336 25.59474121 0.87060547 26.7644043 C0.92791621 30.01473392 0.92791621 30.01473392 1.57080078 33.22973633 C2 36 2 36 1 39 C0.78196693 40.55853267 0.59633644 42.12182651 0.4375 43.6875 C0.35371094 44.49574219 0.26992188 45.30398437 0.18359375 46.13671875 C0.12300781 46.75160156 0.06242187 47.36648437 0 48 C-0.33 48 -0.66 48 -1 48 C-1.02526945 41.3247966 -1.04283268 34.64960543 -1.05493164 27.97436523 C-1.05997325 25.70157409 -1.06680637 23.4287862 -1.07543945 21.15600586 C-1.08751261 17.89696449 -1.09322987 14.63796583 -1.09765625 11.37890625 C-1.10281754 10.35599991 -1.10797882 9.33309357 -1.11329651 8.27919006 C-1.11337204 7.33829025 -1.11344757 6.39739044 -1.11352539 5.42797852 C-1.115746 4.59524918 -1.11796661 3.76251984 -1.12025452 2.90455627 C-1 1 -1 1 0 0 Z " fill="#F3DA4D" transform="translate(380,150)"/>
<path d="M0 0 C2.31 0 4.62 0 7 0 C7 19.14 7 38.28 7 58 C6.67 58 6.34 58 6 58 C5.67 39.52 5.34 21.04 5 2 C3.35 1.67 1.7 1.34 0 1 C0 0.67 0 0.34 0 0 Z " fill="#F1CB50" transform="translate(356,377)"/>
<path d="M0 0 C0.33 0 0.66 0 1 0 C1.1953125 2.01822917 1.390625 4.03645833 1.5859375 6.0546875 C1.86374749 8.22668245 1.86374749 8.22668245 4 10 C4.125 13.625 4.125 13.625 4 17 C3.34 17.33 2.68 17.66 2 18 C1.59270772 20.32156597 1.25561323 22.6568787 1 25 C1.66 25 2.32 25 3 25 C3.625 28.375 3.625 28.375 4 32 C3.34 32.66 2.68 33.32 2 34 C0.40609581 28.27495637 -0.40932172 22.92772617 -0.6875 17 C-0.73455078 16.24460937 -0.78160156 15.48921875 -0.83007812 14.7109375 C-1.09431278 9.66882048 -0.75456018 4.99257864 0 0 Z " fill="#477EAF" transform="translate(20,264)"/>
<path d="M0 0 C-2.67029972 6.08991824 -7.7288815 10.654152 -13.375 14 C-16 15 -16 15 -18 15 C-18 14.34 -18 13.68 -18 13 C-17.34 13 -16.68 13 -16 13 C-16 12.34 -16 11.68 -16 11 C-15.34 11 -14.68 11 -14 11 C-14 10.34 -14 9.68 -14 9 C-12.42945794 7.58303493 -10.79253336 6.23893184 -9.125 4.9375 C-8.22007812 4.22464844 -7.31515625 3.51179688 -6.3828125 2.77734375 C-2.65934066 0 -2.65934066 0 0 0 Z " fill="#F8E274" transform="translate(167,265)"/>
<path d="M0 0 C0.33 0 0.66 0 1 0 C1.53679805 16.38228113 1.53679805 16.38228113 -2 24 C-2.75942036 26.65106742 -3.37612949 29.31255779 -4 32 C-4.99 32 -5.98 32 -7 32 C-7.33 32.99 -7.66 33.98 -8 35 C-8.66 35 -9.32 35 -10 35 C-8.87385811 31.99695497 -7.5767022 29.19454892 -6.0625 26.375 C-1.863486 18.02397589 -0.51886246 9.25006521 0 0 Z " fill="#F3E694" transform="translate(376,196)"/>
<path d="M0 0 C1.15242188 0.10183594 2.30484375 0.20367187 3.4921875 0.30859375 C4.36101562 0.39238281 5.22984375 0.47617188 6.125 0.5625 C6.125 0.8925 6.125 1.2225 6.125 1.5625 C5.08601563 1.66046875 4.04703125 1.7584375 2.9765625 1.859375 C-4.50572459 2.63786329 -11.10363454 3.51723937 -17.95703125 6.85546875 C-19.875 7.5625 -19.875 7.5625 -22.875 6.5625 C-22.875 5.9025 -22.875 5.2425 -22.875 4.5625 C-21.91787109 4.38074219 -21.91787109 4.38074219 -20.94140625 4.1953125 C-20.11511719 4.02773437 -19.28882813 3.86015625 -18.4375 3.6875 C-17.61378906 3.52507812 -16.79007813 3.36265625 -15.94140625 3.1953125 C-15.25949219 2.98648438 -14.57757813 2.77765625 -13.875 2.5625 C-13.545 1.9025 -13.215 1.2425 -12.875 0.5625 C-8.46345644 -0.53056791 -4.50094837 -0.4133524 0 0 Z " fill="#7499B6" transform="translate(177.875,242.4375)"/>
<path d="M0 0 C0 0.66 0 1.32 0 2 C7.59 2 15.18 2 23 2 C23 2.33 23 2.66 23 3 C19.58382503 3.1972935 16.16705407 3.38112295 12.75 3.5625 C11.78191406 3.61857422 10.81382812 3.67464844 9.81640625 3.73242188 C8.41455078 3.80493164 8.41455078 3.80493164 6.984375 3.87890625 C5.69611816 3.94960327 5.69611816 3.94960327 4.38183594 4.02172852 C2 4 2 4 0.1640625 3.52734375 C-3.0615178 2.74132689 -6.30618033 2.7623237 -9.609375 2.68359375 C-10.69958954 2.6524221 -10.69958954 2.6524221 -11.81182861 2.62062073 C-14.12445991 2.55544488 -16.43720093 2.4963896 -18.75 2.4375 C-20.32162575 2.39428434 -21.89324056 2.35066908 -23.46484375 2.30664062 C-27.30978453 2.19979644 -31.15483524 2.09843976 -35 2 C-35 1.67 -35 1.34 -35 1 C-30.33692578 0.85719857 -25.67383973 0.7147919 -21.01074219 0.57275391 C-19.42382479 0.5243604 -17.83691071 0.47585828 -16.25 0.42724609 C-13.97136275 0.35746283 -11.69271395 0.28806785 -9.4140625 0.21875 C-8.70255035 0.19687622 -7.99103821 0.17500244 -7.25796509 0.15246582 C-2.22774341 0 -2.22774341 0 0 0 Z " fill="#57809B" transform="translate(288,240)"/>
<path d="M0 0 C4.1996908 2.99558365 6.60113951 6.09197262 9.25 10.5 C9.93578125 11.6240625 10.6215625 12.748125 11.328125 13.90625 C12.6694778 16.38837948 13.54214921 18.25289524 14 21 C12.09765625 20.75 12.09765625 20.75 10 20 C9.05859375 18.1875 9.05859375 18.1875 8.4375 16 C7.87175061 13.84103663 7.87175061 13.84103663 7 12 C6.01 11.67 5.02 11.34 4 11 C3.67 9.35 3.34 7.7 3 6 C2.34 6 1.68 6 1 6 C0.67 4.02 0.34 2.04 0 0 Z " fill="#F4DC79" transform="translate(456,153)"/>
<path d="M0 0 C0.66 0.33 1.32 0.66 2 1 C1.54625 1.721875 1.0925 2.44375 0.625 3.1875 C-1.04149163 5.89947288 -1.04149163 5.89947288 -2 8.625 C-3.05645887 11.13408981 -3.77613426 12.43505744 -6 14 C-8.6875 14.1875 -8.6875 14.1875 -11 14 C-9.56438314 10.81293058 -7.79733671 8.37830895 -5.5 5.75 C-4.8915625 5.04359375 -4.283125 4.3371875 -3.65625 3.609375 C-2 2 -2 2 0 2 C0 1.34 0 0.68 0 0 Z " fill="#5487AF" transform="translate(153,39)"/>
<path d="M0 0 C1.32 0 2.64 0 4 0 C0.8749029 7.31405704 -6.26993945 13.03098993 -13 17 C-13.66 16.67 -14.32 16.34 -15 16 C-13.6875 14 -13.6875 14 -12 12 C-11.01 12 -10.02 12 -9 12 C-9 11.01 -9 10.02 -9 9 C-8.34 9 -7.68 9 -7 9 C-6.67 8.34 -6.34 7.68 -6 7 C-5.175 6.731875 -4.35 6.46375 -3.5 6.1875 C-2.675 5.795625 -1.85 5.40375 -1 5 C-0.10613836 2.45224694 -0.10613836 2.45224694 0 0 Z " fill="#F5D678" transform="translate(457,336)"/>
<path d="M0 0 C5.78474859 0.41589696 11.58882446 1.95252817 17 4 C13.44651554 6.13209068 10.12223252 6.77916611 6 7 C3.5625 5.5625 3.5625 5.5625 2 4 C2.33 3.67 2.66 3.34 3 3 C1.35 2.67 -0.3 2.34 -2 2 C-1.34 1.34 -0.68 0.68 0 0 Z " fill="#5588B1" transform="translate(302,23)"/>
<path d="M0 0 C-0.66 0.66 -1.32 1.32 -2 2 C-2.99 2 -3.98 2 -5 2 C-5 2.66 -5 3.32 -5 4 C-8.01031744 4.93423645 -8.86650268 5.04449911 -12 4 C-12.33 4.99 -12.66 5.98 -13 7 C-16.4375 8.75 -16.4375 8.75 -20 10 C-20.66 9.67 -21.32 9.34 -22 9 C-5.01874014 -2.20824566 -5.01874014 -2.20824566 0 0 Z " fill="#7399BB" transform="translate(177,29)"/>
<path d="M0 0 C2.60452271 0.14086602 5.20850197 0.28748464 7.8125 0.4375 C8.91948242 0.49647461 8.91948242 0.49647461 10.04882812 0.55664062 C13.23071342 0.74381035 15.96162378 0.98720793 19 2 C21.72897438 2.38503552 24.45128163 2.7398891 27.1875 3.0625 C27.93708984 3.15337891 28.68667969 3.24425781 29.45898438 3.33789062 C31.30565535 3.5613731 33.15278554 3.78105513 35 4 C35 4.33 35 4.66 35 5 C23.02080192 4.64731295 11.6741239 3.81240258 0 1 C0 0.67 0 0.34 0 0 Z " fill="#F8E594" transform="translate(200,476)"/>
<path d="M0 0 C-5.82457838 3.18965007 -10.45979596 4.73123048 -17 3 C-17 3.66 -17 4.32 -17 5 C-20.3 5.33 -23.6 5.66 -27 6 C-24.3088099 3.3088099 -21.33343149 2.84195536 -17.75 1.9375 C-17.09386719 1.76412109 -16.43773437 1.59074219 -15.76171875 1.41210938 C-4.42070017 -1.53024237 -4.42070017 -1.53024237 0 0 Z " fill="#6A92B5" transform="translate(204,22)"/>
<path d="M0 0 C2 2 2 2 2.3125 5.1875 C1.96865176 9.38244859 0.73184783 12.18993477 -1 16 C-1.39764263 17.98821313 -1.75455166 19.98732362 -2 22 C-2.33 22 -2.66 22 -3 22 C-3.41136629 14.12309743 -2.436168 7.49701701 0 0 Z " fill="#7198B7" transform="translate(23,200)"/>
<path d="M0 0 C0.33 0.66 0.66 1.32 1 2 C0.34 2 -0.32 2 -1 2 C-1 2.66 -1 3.32 -1 4 C-7.0065373 6.46422043 -12.74674267 6.88109053 -19 5.1875 C-21 4 -21 4 -22 1 C-20.906875 1.350625 -19.81375 1.70125 -18.6875 2.0625 C-13.43593505 3.38476903 -8.28685907 3.05908001 -3 2 C-2.01 1.34 -1.02 0.68 0 0 Z " fill="#779CB8" transform="translate(198,90)"/>
<path d="M0 0 C0.66 0.33 1.32 0.66 2 1 C0.93813626 4.42156094 -0.06057448 5.03200161 -3.3125 6.75 C-6.55488708 7.84911426 -8.64158092 8.30531083 -12 8 C-8.79691333 4.23166274 -4.36419411 2.18209706 0 0 Z " fill="#6897B8" transform="translate(65,143)"/>
<path d="M0 0 C0.99 0.33 1.98 0.66 3 1 C4.41687119 5.25061356 3.19320039 7.71851625 2 12 C2.66 12.33 3.32 12.66 4 13 C3.01 14.485 3.01 14.485 2 16 C0 15 0 15 -1 12 C-0.91426773 9.93412885 -0.76166465 7.87053475 -0.5625 5.8125 C-0.46066406 4.72582031 -0.35882813 3.63914062 -0.25390625 2.51953125 C-0.17011719 1.68808594 -0.08632812 0.85664062 0 0 Z " fill="#4A779A" transform="translate(251,124)"/>
<path d="M0 0 C-7.31819173 4.00758119 -15.73986956 5.47654599 -24 5 C-18.6696141 -0.3303859 -7.26769057 -0.43606143 0 0 Z " fill="#F6E393" transform="translate(200,256)"/>
<path d="M0 0 C2.2580605 3.38709075 2.79994908 5.96642159 3.625 9.9375 C3.88539063 11.16339844 4.14578125 12.38929688 4.4140625 13.65234375 C5 17 5 17 5 21 C4.34 21 3.68 21 3 21 C3 19.02 3 17.04 3 15 C2.34 15 1.68 15 1 15 C0.15318867 9.91913204 -0.09038099 5.15171623 0 0 Z " fill="#F6DD84" transform="translate(476,190)"/>
<path d="M0 0 C0.33 0 0.66 0 1 0 C1.52920984 8.20275254 0.22980957 15.23188883 -5.25 21.625 C-6.11625 22.305625 -6.11625 22.305625 -7 23 C-7 21.68 -7 20.36 -7 19 C-6.34 19 -5.68 19 -5 19 C-4.8659375 18.43023437 -4.731875 17.86046875 -4.59375 17.2734375 C-4.00182632 15.0069929 -3.27535939 12.83477426 -2.5 10.625 C-1.30570807 7.10038236 -0.47476447 3.70316284 0 0 Z " fill="#F6E08F" transform="translate(363,429)"/>
<path d="M0 0 C0.33 0 0.66 0 1 0 C1.35475877 3.81365679 1.2619932 5.58442458 -0.8125 8.875 C-3 11 -3 11 -6 11 C-6 11.66 -6 12.32 -6 13 C-6.99 13 -7.98 13 -9 13 C-9.33 13.66 -9.66 14.32 -10 15 C-10.66 14.34 -11.32 13.68 -12 13 C-7.25 10 -7.25 10 -5 10 C-4.731875 9.46375 -4.46375 8.9275 -4.1875 8.375 C-2.79166667 5.58333333 -1.39583333 2.79166667 0 0 Z " fill="#F4DB84" transform="translate(333,430)"/>
<path d="M0 0 C0.6953125 1.73828125 0.6953125 1.73828125 1 4 C-0.2578125 6.10546875 -0.2578125 6.10546875 -2.125 8.1875 C-2.72570312 8.88230469 -3.32640625 9.57710937 -3.9453125 10.29296875 C-6.31091539 12.25830804 -7.97995963 12.64992612 -11 13 C-9.71937515 11.2925002 -8.38232443 9.62626404 -7 8 C-6.34 8 -5.68 8 -5 8 C-4.731875 7.4225 -4.46375 6.845 -4.1875 6.25 C-2.98280141 3.9674132 -1.59201885 2.0262058 0 0 Z " fill="#F3E388" transform="translate(365,231)"/>
<path d="M0 0 C0.33 0 0.66 0 1 0 C1.08636719 0.71285156 1.17273438 1.42570312 1.26171875 2.16015625 C2.2373534 8.81058329 3.65662015 12.85652386 8 18 C7.34 18.33 6.68 18.66 6 19 C4 17 4 17 3 15 C2.34 15 1.68 15 1 15 C-1.42945561 11.35581659 -1.0828781 10.07076636 -0.625 5.8125 C-0.51414063 4.72582031 -0.40328125 3.63914062 -0.2890625 2.51953125 C-0.19367188 1.68808594 -0.09828125 0.85664062 0 0 Z " fill="#77A1BD" transform="translate(167,72)"/>
<path d="M0 0 C5.21444755 2.76684972 9.78371969 5.83498145 14 10 C14 10.33 14 10.66 14 11 C11.75 11.25 11.75 11.25 9 11 C6.6875 9.125 6.6875 9.125 5 7 C5 6.34 5 5.68 5 5 C4.01 4.67 3.02 4.34 2 4 C2 3.34 2 2.68 2 2 C1.34 2 0.68 2 0 2 C0 1.34 0 0.68 0 0 Z " fill="#6C8EAA" transform="translate(337,36)"/>
<path d="M0 0 C-1.40544431 2.0203262 -2.52076992 2.90473137 -4.9453125 3.38671875 C-6.96185479 3.60716513 -8.98087677 3.80460098 -11 4 C-11.33 4.33 -11.66 4.66 -12 5 C-14.01964199 5.07244053 -16.04167124 5.08377188 -18.0625 5.0625 C-19.16722656 5.05347656 -20.27195312 5.04445313 -21.41015625 5.03515625 C-22.69212891 5.01775391 -22.69212891 5.01775391 -24 5 C-24 4.67 -24 4.34 -24 4 C-22.91460937 3.80664062 -21.82921875 3.61328125 -20.7109375 3.4140625 C-19.26558332 3.15127083 -17.82027312 2.88823714 -16.375 2.625 C-15.66214844 2.49867188 -14.94929688 2.37234375 -14.21484375 2.2421875 C-10.88030578 1.63034567 -7.82114269 0.93873623 -4.6015625 -0.1640625 C-2 -1 -2 -1 0 0 Z " fill="#F4E198" transform="translate(344,251)"/>
<path d="M0 0 C3.77254453 0.50980331 5.44987123 1.20700182 8 4 C8.66 4 9.32 4 10 4 C10.33 5.65 10.66 7.3 11 9 C10.01 9.495 10.01 9.495 9 10 C8.34 9.67 7.68 9.34 7 9 C7 8.34 7 7.68 7 7 C6.401875 6.773125 5.80375 6.54625 5.1875 6.3125 C2.43648112 4.66188867 1.47515363 2.8027919 0 0 Z " fill="#F4DD78" transform="translate(146,447)"/>
<path d="M0 0 C1.31225809 3.93677426 0.3393954 5.7794262 -0.9375 9.6875 C-1.50791016 11.45673828 -1.50791016 11.45673828 -2.08984375 13.26171875 C-2.39019531 14.16535156 -2.69054687 15.06898438 -3 16 C-3.33 16 -3.66 16 -4 16 C-3.91321237 13.70760939 -3.80504727 11.4160193 -3.6875 9.125 C-3.62949219 7.84882813 -3.57148438 6.57265625 -3.51171875 5.2578125 C-3.34285156 4.18273437 -3.17398437 3.10765625 -3 2 C-2.01 1.34 -1.02 0.68 0 0 Z " fill="#F5D97D" transform="translate(478,297)"/>
<path d="M0 0 C1 2 1 2 0.109375 4.78515625 C-0.33921875 5.86667969 -0.7878125 6.94820313 -1.25 8.0625 C-1.68828125 9.14660156 -2.1265625 10.23070312 -2.578125 11.34765625 C-4 14 -4 14 -7 15 C-6.41924692 11.27790075 -5.38005719 8.50730838 -3.5 5.25 C-3.0565625 4.47140625 -2.613125 3.6928125 -2.15625 2.890625 C-1 1 -1 1 0 0 Z " fill="#F5E78C" transform="translate(148,281)"/>
<path d="M0 0 C0.66 0 1.32 0 2 0 C0.51637716 6.26418531 -3.24162156 10.91513505 -7 16 C-7.33 15.01 -7.66 14.02 -8 13 C-6.7260411 10.96166576 -5.38938077 8.96147874 -4 7 C-3.67 6.01 -3.34 5.02 -3 4 C-2.34 4 -1.68 4 -1 4 C-0.67 2.68 -0.34 1.36 0 0 Z " fill="#F3DA88" transform="translate(469,320)"/>
<path d="M0 0 C0.33 0.66 0.66 1.32 1 2 C1.66 2.33 2.32 2.66 3 3 C1.68 3.33 0.36 3.66 -1 4 C-1.061875 4.556875 -1.12375 5.11375 -1.1875 5.6875 C-2.33373872 8.94987173 -4.49390197 10.68667874 -7 13 C-7 8.40848794 -6.31497074 7.66817876 -3.5 4.25 C-2.8503125 3.45078125 -2.200625 2.6515625 -1.53125 1.828125 C-1.0259375 1.22484375 -0.520625 0.6215625 0 0 Z " fill="#6E98BC" transform="translate(44,158)"/>
<path d="M0 0 C0.33 1.32 0.66 2.64 1 4 C-4.625 5.125 -4.625 5.125 -8 4 C-8.33 4.66 -8.66 5.32 -9 6 C-9.66 5.34 -10.32 4.68 -11 4 C-10.67 3.34 -10.34 2.68 -10 2 C-7.71484375 1.3671875 -7.71484375 1.3671875 -4.9375 0.875 C-4.01839844 0.70742188 -3.09929687 0.53984375 -2.15234375 0.3671875 C-1.44207031 0.24601562 -0.73179687 0.12484375 0 0 Z " fill="#3B79AF" transform="translate(187,26)"/>
<path d="M0 0 C2.1519437 3.22791555 2.20086443 4.28400809 2 8 C3.98 7.34 5.96 6.68 8 6 C9 9 9 9 8.0625 11.1875 C7.5365625 12.0846875 7.5365625 12.0846875 7 13 C6.34 13 5.68 13 5 13 C4.67 12.01 4.34 11.02 4 10 C3.01 10.495 3.01 10.495 2 11 C0.80712589 7.12315913 0 4.08378077 0 0 Z " fill="#5A8CB4" transform="translate(23,298)"/>
<path d="M0 0 C0.66 0 1.32 0 2 0 C1.67 2.64 1.34 5.28 1 8 C0.01 8 -0.98 8 -2 8 C-2.33 8.99 -2.66 9.98 -3 11 C-3.66 11 -4.32 11 -5 11 C-3.55049545 7.2089881 -1.84827434 3.6125362 0 0 Z " fill="#F4DB7F" transform="translate(371,220)"/>
<path d="M0 0 C0 0.99 0 1.98 0 3 C-1.32 3.33 -2.64 3.66 -4 4 C-4 4.66 -4 5.32 -4 6 C-4.66 6 -5.32 6 -6 6 C-6 5.34 -6 4.68 -6 4 C-6.99 4.33 -7.98 4.66 -9 5 C-8.00233891 2.50584728 -7.31383315 1.21259665 -5.0625 -0.3125 C-3 -1 -3 -1 0 0 Z " fill="#367CB4" transform="translate(160,42)"/>
<path d="M0 0 C1.65 0 3.3 0 5 0 C1.97903433 2.49247522 -0.87923005 3.87956332 -4.5625 5.1875 C-5.51253906 5.53167969 -6.46257812 5.87585938 -7.44140625 6.23046875 C-10 7 -10 7 -13 7 C-13 6.34 -13 5.68 -13 5 C-8.67940177 3.90154282 -4.38332057 2.82187261 0 2 C0 1.34 0 0.68 0 0 Z " fill="#F3DE92" transform="translate(437,353)"/>
<path d="M0 0 C0 0.33 0 0.66 0 1 C-1.98 1 -3.96 1 -6 1 C-6 1.66 -6 2.32 -6 3 C-8.99480917 3.8723412 -11.63575911 4.10829766 -14.75 4.0625 C-15.54921875 4.05347656 -16.3484375 4.04445312 -17.171875 4.03515625 C-17.77515625 4.02355469 -18.3784375 4.01195312 -19 4 C-12.8100177 0.73344615 -6.8974189 -0.28739245 0 0 Z " fill="#8AADC5" transform="translate(88,138)"/>
<path d="M0 0 C0.33 0 0.66 0 1 0 C1 3.63 1 7.26 1 11 C1.66 11 2.32 11 3 11 C3.625 14.375 3.625 14.375 4 18 C3.34 18.66 2.68 19.32 2 20 C-0.07965362 13.24112575 -0.21133202 7.04440079 0 0 Z " fill="#7C9FBA" transform="translate(20,278)"/>
<path d="M0 0 C0.66 0 1.32 0 2 0 C2.36263859 5.8022175 1.25684543 9.63999211 -1 15 C-1.33 15 -1.66 15 -2 15 C-1.03644647 4.44191344 -1.03644647 4.44191344 0 0 Z " fill="#7894A8" transform="translate(360,195)"/>
<path d="M0 0 C-2.60101286 0.86500888 -5.20506411 1.71726928 -7.8125 2.5625 C-8.91948242 2.9327832 -8.91948242 2.9327832 -10.04882812 3.31054688 C-15.66015625 5.11328125 -15.66015625 5.11328125 -19 4 C-15.91433716 1.94289144 -13.63014688 1.21653907 -10.0625 0.3125 C-8.50208984 -0.09548828 -8.50208984 -0.09548828 -6.91015625 -0.51171875 C-4.1294044 -0.97828785 -2.61519118 -0.93894816 0 0 Z " fill="#F5E08F" transform="translate(330,471)"/>
<path d="M0 0 C1.98 0 3.96 0 6 0 C6 0.99 6 1.98 6 3 C7.32 3.33 8.64 3.66 10 4 C10 4.66 10 5.32 10 6 C10.99 6 11.98 6 13 6 C12.67 6.66 12.34 7.32 12 8 C10.55901389 7.23570339 9.12233946 6.46327445 7.6875 5.6875 C6.48673828 5.04361328 6.48673828 5.04361328 5.26171875 4.38671875 C3.16212728 3.09940446 1.64552279 1.81593292 0 0 Z " fill="#F6E389" transform="translate(160,460)"/>
<path d="M0 0 C1.32 0.66 2.64 1.32 4 2 C1.61042731 5.24299151 -0.2047869 7.50902342 -4 9 C-4.33 8.01 -4.66 7.02 -5 6 C-4.67 5.34 -4.34 4.68 -4 4 C-2.68 4 -1.36 4 0 4 C0 2.68 0 1.36 0 0 Z " fill="#60809E" transform="translate(347,220)"/>
<path d="M0 0 C0.66 0.33 1.32 0.66 2 1 C0.54955729 5.10958767 -1.51110752 8.43258745 -4 12 C-4.93065133 9.39417629 -5.14917407 8.35801776 -4.0625 5.75 C-3.5365625 4.88375 -3.5365625 4.88375 -3 4 C-2.01 4 -1.02 4 0 4 C0 2.68 0 1.36 0 0 Z " fill="#8097B1" transform="translate(356,209)"/>
<path d="M0 0 C1.4540625 0.9590625 1.4540625 0.9590625 2.9375 1.9375 C7.1553638 4.38351528 11.19519242 4.78209489 16 5 C16 5.33 16 5.66 16 6 C11.71 6 7.42 6 3 6 C2.67 4.68 2.34 3.36 2 2 C1.34 2 0.68 2 0 2 C0 1.34 0 0.68 0 0 Z " fill="#F4E089" transform="translate(301,439)"/>
<path d="M0 0 C0.99 0.33 1.98 0.66 3 1 C3 1.66 3 2.32 3 3 C3.66 3 4.32 3 5 3 C5.625 5.875 5.625 5.875 6 9 C5.34 9.66 4.68 10.32 4 11 C3.32880451 9.5437455 2.66318193 8.08492133 2 6.625 C1.62875 5.81289063 1.2575 5.00078125 0.875 4.1640625 C0 2 0 2 0 0 Z " fill="#7398B4" transform="translate(28,317)"/>
<path d="M0 0 C1.32 0.66 2.64 1.32 4 2 C1.22719294 5.08089673 -1.06326356 6.68775452 -5 8 C-5.33 7.01 -5.66 6.02 -6 5 C-4.68 5 -3.36 5 -2 5 C-2 4.34 -2 3.68 -2 3 C-1.34 3 -0.68 3 0 3 C0 2.01 0 1.02 0 0 Z " fill="#7390AC" transform="translate(339,227)"/>
<path d="M0 0 C0.88935377 3.303314 1.46274105 6.62294375 2 10 C0.68 10 -0.64 10 -2 10 C-3.39195915 5.82412255 -1.82323219 3.86525224 0 0 Z " fill="#76A0C4" transform="translate(141,53)"/>
<path d="M0 0 C0.33 0 0.66 0 1 0 C1.33 1.65 1.66 3.3 2 5 C2.66 4.67 3.32 4.34 4 4 C4.33 5.65 4.66 7.3 5 9 C4.01 9.33 3.02 9.66 2 10 C1.34 10.66 0.68 11.32 0 12 C0 8.04 0 4.08 0 0 Z " fill="#4B81AB" transform="translate(138,111)"/>
<path d="M0 0 C1.93833996 0.08715017 3.8757429 0.19532964 5.8125 0.3125 C7.43091797 0.39951172 7.43091797 0.39951172 9.08203125 0.48828125 C12.17497517 1.03068507 13.13022903 1.55289624 15 4 C9.46342706 4.42589023 5.10334017 2.905247 0 1 C0 0.67 0 0.34 0 0 Z " fill="#F7E07E" transform="translate(185,472)"/>
<path d="M0 0 C0.66 0.33 1.32 0.66 2 1 C-1.49087093 5.0042343 -3.64951939 6.62671065 -9 7 C-6.25604436 4.05278838 -3.61662784 1.80831392 0 0 Z " fill="#8BACC1" transform="translate(164,32)"/>
<path d="M0 0 C-2.31 0.33 -4.62 0.66 -7 1 C-7 1.66 -7 2.32 -7 3 C-10.3 3.33 -13.6 3.66 -17 4 C-14.4691537 1.4691537 -12.51862293 1.17129418 -9.0625 0.3125 C-8.00160156 0.04050781 -6.94070312 -0.23148438 -5.84765625 -0.51171875 C-3 -1 -3 -1 0 0 Z " fill="#83A9C5" transform="translate(194,24)"/>
<path d="M0 0 C0 2.95274099 -0.43891831 4.49058403 -1.5 7.1875 C-1.7784375 7.90292969 -2.056875 8.61835938 -2.34375 9.35546875 C-2.5603125 9.89816406 -2.776875 10.44085938 -3 11 C-3.66 10.67 -4.32 10.34 -5 10 C-4.47731534 7.23723823 -3.89130413 4.6739124 -3 2 C-2.01 1.34 -1.02 0.68 0 0 Z " fill="#F6DF56" transform="translate(152,278)"/>
<path d="M0 0 C-1.10699901 3.21029714 -2.01603825 4.00968977 -5 5.8125 C-5.99 6.204375 -6.98 6.59625 -8 7 C-8.66 6.67 -9.32 6.34 -10 6 C-8.71283353 4.99421411 -7.42011342 3.99553202 -6.125 3 C-5.40570313 2.443125 -4.68640625 1.88625 -3.9453125 1.3125 C-2 0 -2 0 0 0 Z " fill="#F7E898" transform="translate(167,265)"/>
<path d="M0 0 C2.31 0 4.62 0 7 0 C4.22719294 3.08089673 1.93673644 4.68775452 -2 6 C-1.34 4.02 -0.68 2.04 0 0 Z " fill="#6289AA" transform="translate(148,250)"/>
<path d="M0 0 C0.66 0.33 1.32 0.66 2 1 C1.67 2.32 1.34 3.64 1 5 C-0.32 4.67 -1.64 4.34 -3 4 C-3 5.32 -3 6.64 -3 8 C-3.66 8 -4.32 8 -5 8 C-5 6.35 -5 4.7 -5 3 C-4.34 3 -3.68 3 -3 3 C-2.67 2.34 -2.34 1.68 -2 1 C-1.34 0.67 -0.68 0.34 0 0 Z " fill="#36688D" transform="translate(350,216)"/>
<path d="M0 0 C3.24299151 2.38957269 5.50902342 4.2047869 7 8 C5.68 8 4.36 8 3 8 C3 7.34 3 6.68 3 6 C2.34 6 1.68 6 1 6 C0.67 4.02 0.34 2.04 0 0 Z " fill="#F8E28D" transform="translate(456,153)"/>
<path d="M0 0 C0.33 0 0.66 0 1 0 C1.25 5.625 1.25 5.625 -1 9 C-1.99 8.67 -2.98 8.34 -4 8 C-3.67 6.35 -3.34 4.7 -3 3 C-2.34 3 -1.68 3 -1 3 C-0.67 2.01 -0.34 1.02 0 0 Z " fill="#3A6893" transform="translate(357,204)"/>
<path d="M0 0 C0.33 1.32 0.66 2.64 1 4 C0.34 4 -0.32 4 -1 4 C-1.33 6.31 -1.66 8.62 -2 11 C-2.99 11 -3.98 11 -5 11 C-3.77472971 6.94718288 -2.30119506 3.55639236 0 0 Z " fill="#8AADC8" transform="translate(35,170)"/>
<path d="M0 0 C2.97 0 5.94 0 9 0 C9 1.32 9 2.64 9 4 C6.03 3.01 3.06 2.02 0 1 C0 0.67 0 0.34 0 0 Z " fill="#FADF79" transform="translate(174,468)"/>
<path d="M0 0 C0.99 0.33 1.98 0.66 3 1 C-2.75 6 -2.75 6 -5 6 C-5 4.68 -5 3.36 -5 2 C-3.35 2 -1.7 2 0 2 C0 1.34 0 0.68 0 0 Z " fill="#F2D97C" transform="translate(348,457)"/>
<path d="M0 0 C-1.8125 2 -1.8125 2 -4 4 C-4.99 4 -5.98 4 -7 4 C-7.33 3.01 -7.66 2.02 -8 1 C-5.29120665 -0.35439668 -2.99066732 -0.06501451 0 0 Z " fill="#F3D871" transform="translate(343,463)"/>
<path d="M0 0 C0.66 0 1.32 0 2 0 C2.33 0.99 2.66 1.98 3 3 C3.99 3.66 4.98 4.32 6 5 C6 6.32 6 7.64 6 9 C5.34 9 4.68 9 4 9 C0 2.25 0 2.25 0 0 Z " fill="#F2E698" transform="translate(141,438)"/>
<path d="M0 0 C0.33 0 0.66 0 1 0 C1.02712066 1.43739513 1.04645067 2.87493863 1.0625 4.3125 C1.07410156 5.11300781 1.08570313 5.91351563 1.09765625 6.73828125 C1 9 1 9 0 12 C-0.66 12 -1.32 12 -2 12 C-2.26252625 7.66831683 -1.29243536 4.1196377 0 0 Z " fill="#F3DA86" transform="translate(363,429)"/>
<path d="M0 0 C1.32 0 2.64 0 4 0 C5.85776765 3.13498292 6.20140476 5.37471432 6 9 C3.75972706 6.11964908 1.83827868 3.15133488 0 0 Z " fill="#F3DF93" transform="translate(328,411)"/>
<path d="M0 0 C-0.33 0.99 -0.66 1.98 -1 3 C-2.65 3.33 -4.3 3.66 -6 4 C-6.33 3.01 -6.66 2.02 -7 1 C-4.53721199 -0.231394 -2.7204945 -0.07159196 0 0 Z " fill="#658AA8" transform="translate(162,246)"/>
<path d="M0 0 C2 4 2 4 1.3125 6.6875 C0 9 0 9 -3 10 C-2.01 6.7 -1.02 3.4 0 0 Z " fill="#77A0BD" transform="translate(29,181)"/>
<path d="M0 0 C5.75 0.75 5.75 0.75 8 3 C7.67 3.66 7.34 4.32 7 5 C3.34683329 3.75023244 2.21934164 3.32901247 0 0 Z " fill="#7DA0B9" transform="translate(52,352)"/>
<path d="M0 0 C0.99 0.33 1.98 0.66 3 1 C3 1.66 3 2.32 3 3 C3.66 3 4.32 3 5 3 C5 3.66 5 4.32 5 5 C5.66 5.33 6.32 5.66 7 6 C4.03 5.505 4.03 5.505 1 5 C0.67 3.35 0.34 1.7 0 0 Z " fill="#3E6D95" transform="translate(45,342)"/>
<path d="M0 0 C2.475 0.495 2.475 0.495 5 1 C4.67 2.98 4.34 4.96 4 7 C2 6 2 6 0.875 2.9375 C0.58625 1.968125 0.2975 0.99875 0 0 Z " fill="#7A9DB8" transform="translate(33,328)"/>
<path d="M0 0 C-0.33 0.99 -0.66 1.98 -1 3 C-3.64 3.33 -6.28 3.66 -9 4 C-8 2 -8 2 -5.625 0.875 C-3 0 -3 0 0 0 Z " fill="#F5E695" transform="translate(176,261)"/>
<path d="M0 0 C0.66 0.33 1.32 0.66 2 1 C1.360625 1.598125 0.72125 2.19625 0.0625 2.8125 C-2.20310389 4.90810337 -2.20310389 4.90810337 -3 8 C-4.32 7.67 -5.64 7.34 -7 7 C-5.37660195 5.29115995 -3.70680947 3.62553283 -2 2 C-1.34 2 -0.68 2 0 2 C0 1.34 0 0.68 0 0 Z " fill="#90AEC3" transform="translate(153,39)"/>
<path d="M0 0 C-4.75 4 -4.75 4 -7 4 C-6.625 2.0625 -6.625 2.0625 -6 0 C-3.50907189 -1.24546405 -2.58919267 -0.7767578 0 0 Z " fill="#417BA7" transform="translate(161,39)"/>
<path d="M0 0 C2.91517292 1.07401108 4.77810176 1.77810176 7 4 C5.35 4.33 3.7 4.66 2 5 C2 4.34 2 3.68 2 3 C1.34 3 0.68 3 0 3 C0 2.01 0 1.02 0 0 Z " fill="#7FA1BA" transform="translate(330,32)"/>
<path d="M0 0 C0.33 0 0.66 0 1 0 C1.06058594 0.60328125 1.12117188 1.2065625 1.18359375 1.828125 C1.26738281 2.62734375 1.35117187 3.4265625 1.4375 4.25 C1.51871094 5.03890625 1.59992188 5.8278125 1.68359375 6.640625 C1.97634993 8.82364639 2.42064419 10.8773182 3 13 C2.01 12.67 1.02 12.34 0 12 C0 8.04 0 4.08 0 0 Z " fill="#ECD37D" transform="translate(294,420)"/>
<path d="M0 0 C0.66 0.33 1.32 0.66 2 1 C-0.25 3.5625 -0.25 3.5625 -3 6 C-4.32 5.67 -5.64 5.34 -7 5 C-4.69 3.35 -2.38 1.7 0 0 Z " fill="#F7E590" transform="translate(352,244)"/>
<path d="M0 0 C2.27795022 2.27795022 3.05219877 3.93787293 4 7 C3.625 9.3125 3.625 9.3125 3 11 C0 4.5 0 4.5 0 0 Z " fill="#F4E28A" transform="translate(472,179)"/>
<path d="M0 0 C0.33 0.66 0.66 1.32 1 2 C-1.40436026 5.60654039 -2.94679607 5.85452932 -7 7 C-4.78071806 4.09197539 -3.07030857 2.04687238 0 0 Z " fill="#83A9C2" transform="translate(52,151)"/>
<path d="M0 0 C2.31 0.66 4.62 1.32 7 2 C7 2.66 7 3.32 7 4 C4.03 3.505 4.03 3.505 1 3 C0.67 2.01 0.34 1.02 0 0 Z " fill="#5A80A0" transform="translate(58,355)"/>
<path d="M0 0 C0.66 0 1.32 0 2 0 C2.73080266 1.97746603 3.39421747 3.98072489 4 6 C3.67 6.66 3.34 7.32 3 8 C1.68 6.02 0.36 4.04 -1 2 C-0.67 1.34 -0.34 0.68 0 0 Z " fill="#7C9EBC" transform="translate(42,339)"/>
<path d="M0 0 C0.66 0.33 1.32 0.66 2 1 C1.01 3.97 0.02 6.94 -1 10 C-3 7 -3 7 -3 5 C-2.01 5 -1.02 5 0 5 C0 3.35 0 1.7 0 0 Z " fill="#7599B3" transform="translate(130,273)"/>
</svg>
