<?xml version="1.0" encoding="UTF-8"?>
<svg version="1.1" xmlns="http://www.w3.org/2000/svg" width="1702" height="1702">
<path d="M0 0 C3.85857823 0.01709091 7.71653525 0.00692175 11.57509232 -0.0103302 C29.97101102 -0.07991627 47.89271832 0.73352504 66.13232422 3.39111328 C67.19440094 3.54052872 68.25647766 3.68994415 69.35073853 3.84388733 C136.41474802 13.29132512 202.54571922 38.57539374 258.13232422 77.39111328 C258.76460937 77.83052246 259.39689453 78.26993164 260.04833984 78.72265625 C275.82563947 89.7226162 291.03316395 101.50294441 305.11279297 114.61767578 C307.34133702 116.6883004 309.62384304 118.68383613 311.92919922 120.66845703 C316.54821749 124.69442292 320.87464281 128.98644621 325.19482422 133.32861328 C325.95859375 134.08851563 326.72236328 134.84841797 327.50927734 135.63134766 C332.25805326 140.38824808 336.76180104 145.28647617 341.13232422 150.39111328 C342.0817728 151.47408552 343.03224206 152.55616405 343.98388672 153.63720703 C351.78488391 162.58045832 359.05022708 171.87126163 366.13232422 181.39111328 C366.6753418 182.1184668 367.21835938 182.84582031 367.77783203 183.59521484 C412.98443383 244.3810377 440.62833821 315.01984688 448.13232422 390.39111328 C448.25670868 391.45714279 448.25670868 391.45714279 448.38360596 392.54470825 C449.1314056 399.25083928 449.30814338 405.88897696 449.33544922 412.63330078 C449.34590271 414.36381432 449.34590271 414.36381432 449.35656738 416.12928772 C449.37390713 419.84160021 449.38028935 423.55376195 449.38232422 427.26611328 C449.3833313 428.53021027 449.38433838 429.79430725 449.38537598 431.09671021 C449.37564746 449.09660516 448.92040857 466.58703153 446.13232422 484.39111328 C445.84885394 486.4298683 445.56763812 488.46893794 445.28857422 490.50830078 C439.92374249 528.18702471 429.48982045 564.98674007 413.13232422 599.39111328 C412.75462891 600.20257812 412.37693359 601.01404297 411.98779297 601.85009766 C406.21786194 614.19299135 399.44529154 625.8966083 392.40136719 637.54443359 C391.73379395 638.65012695 391.0662207 639.75582031 390.37841797 640.89501953 C389.47627563 642.37723999 389.47627563 642.37723999 388.5559082 643.8894043 C387.02336426 646.39407357 387.02336426 646.39407357 386.13232422 649.39111328 C387.14792449 652.11443777 387.14792449 652.11443777 388.74560547 655.11376953 C389.62140259 656.86161743 389.62140259 656.86161743 390.51489258 658.64477539 C390.98715775 659.57506058 390.98715775 659.57506058 391.46896362 660.5241394 C438.84106537 754.18837098 443.74091166 865.36141542 412.06933594 964.72607422 C398.98496729 1004.24889915 379.01435373 1042.74130959 353.13232422 1075.39111328 C352.40529297 1076.31794922 351.67826172 1077.24478516 350.92919922 1078.19970703 C349.01638144 1080.61332159 347.0770261 1083.00316312 345.13232422 1085.39111328 C344.14425781 1086.64021484 344.14425781 1086.64021484 343.13623047 1087.91455078 C330.09862711 1104.22949663 315.16816651 1119.9921399 299.13232422 1133.39111328 C297.79621094 1134.5609375 297.79621094 1134.5609375 296.43310547 1135.75439453 C281.07189177 1149.14063044 264.30653209 1160.48568368 247.13232422 1171.39111328 C245.30393422 1172.55866714 243.47581406 1173.72664368 241.64794922 1174.89501953 C232.22128857 1180.91326819 222.76817425 1186.88958872 213.30908203 1192.85668945 C204.50038718 1198.41577936 195.71591679 1204.01285341 186.93066406 1209.60888672 C182.33208658 1212.53766142 177.73212707 1215.46426364 173.13232422 1218.39111328 C172.22289062 1218.96990234 171.31345703 1219.54869141 170.37646484 1220.14501953 C165.83088194 1223.03795607 161.28483212 1225.93015359 156.73779297 1228.82080078 C147.02623938 1234.99577705 137.32370463 1241.18451692 127.63232422 1247.39111328 C112.22063557 1257.2603869 96.78640393 1267.09330814 81.30786133 1276.85742188 C72.49963191 1282.4163607 63.71551697 1288.01310809 54.93066406 1293.60888672 C50.33208658 1296.53766142 45.73212707 1299.46426364 41.13232422 1302.39111328 C40.22289062 1302.96990234 39.31345703 1303.54869141 38.37646484 1304.14501953 C33.83088194 1307.03795607 29.28483212 1309.93015359 24.73779297 1312.82080078 C15.02623938 1318.99577705 5.32370463 1325.18451692 -4.36767578 1331.39111328 C-19.77848312 1341.25982253 -35.20983182 1351.09552979 -50.68994141 1360.85522461 C-55.78922828 1364.07204956 -60.87625572 1367.30755413 -65.95800781 1370.55200195 C-70.58926944 1373.5067355 -75.2267743 1376.45154724 -79.86767578 1379.39111328 C-80.75777344 1379.95507812 -81.64787109 1380.51904297 -82.56494141 1381.10009766 C-131.93294242 1412.28560673 -185.56746408 1433.0853628 -243.36767578 1442.20361328 C-244.59284912 1442.39842285 -245.81802246 1442.59323242 -247.08032227 1442.79394531 C-266.58197936 1445.72003174 -285.90504732 1446.71991327 -305.61694336 1446.65185547 C-309.29769391 1446.64113507 -312.97795551 1446.6518206 -316.65869141 1446.66455078 C-336.75374074 1446.67757649 -356.51935513 1445.39420415 -376.36767578 1442.20361328 C-377.02955902 1442.09784973 -377.69144226 1441.99208618 -378.37338257 1441.88311768 C-456.35369839 1429.32208221 -530.28162865 1396.77272125 -591.74267578 1347.07861328 C-592.34233154 1346.59392578 -592.9419873 1346.10923828 -593.55981445 1345.60986328 C-595.67460715 1343.88454283 -597.77227191 1342.13994583 -599.86767578 1340.39111328 C-600.35458893 1339.98818054 -600.84150208 1339.5852478 -601.34317017 1339.17010498 C-610.47635145 1331.59110569 -619.00700664 1323.53865785 -627.35668945 1315.10791016 C-629.32262296 1313.12350215 -631.29666058 1311.14743188 -633.27197266 1309.17236328 C-639.34186324 1303.08565015 -645.37232615 1297.01077028 -650.86767578 1290.39111328 C-651.93695312 1289.12654297 -651.93695312 1289.12654297 -653.02783203 1287.83642578 C-654.86789479 1285.59207819 -656.69657735 1283.33906538 -658.51318359 1281.07568359 C-659.45416292 1279.90539568 -660.39911846 1278.73829821 -661.34716797 1277.57373047 C-677.05004552 1258.22988812 -690.95047107 1237.26830127 -702.86767578 1215.39111328 C-703.5736792 1214.11034912 -703.5736792 1214.11034912 -704.29394531 1212.80371094 C-721.95830014 1180.59634334 -735.89194893 1145.33465356 -743.86767578 1109.39111328 C-744.1697998 1108.06466797 -744.1697998 1108.06466797 -744.47802734 1106.71142578 C-751.09000024 1077.27169126 -753.53845629 1048.34090894 -753.31719971 1018.27459717 C-753.3010912 1015.16516501 -753.31132928 1012.05602907 -753.32092381 1008.94658756 C-753.36544659 990.88586001 -752.63928047 973.27860496 -749.86767578 955.39111328 C-749.76081451 954.67059784 -749.65395325 953.9500824 -749.54385376 953.20773315 C-748.95323695 949.23349552 -748.2837258 945.27972642 -747.55517578 941.32861328 C-747.34207764 940.1663623 -747.12897949 939.00411133 -746.90942383 937.80664062 C-739.01274868 895.85680426 -724.21826074 855.06921934 -702.61767578 818.20361328 C-702.21508545 817.50421631 -701.81249512 816.80481934 -701.39770508 816.08422852 C-699.56071993 812.95852763 -697.78599338 810.29869328 -695.37158203 807.56689453 C-692.95108039 804.74944788 -691.64954955 803.03671747 -690.86767578 799.39111328 C-692.1806253 793.52857242 -695.53753058 788.28372179 -698.42871094 783.08447266 C-700.89121772 778.47531507 -702.93479049 773.69137789 -704.99267578 768.89111328 C-705.62459839 767.42641602 -705.62459839 767.42641602 -706.26928711 765.93212891 C-722.77686069 727.35984955 -731.84214888 687.02729812 -735.86767578 645.39111328 C-735.97080078 644.36026611 -736.07392578 643.32941895 -736.18017578 642.26733398 C-737.07816039 632.21872588 -737.11115755 622.1598802 -737.11767578 612.07861328 C-737.11835052 611.13458649 -737.11902527 610.19055969 -737.11972046 609.21792603 C-737.07892722 573.01602369 -732.2023808 537.39013196 -722.86767578 502.39111328 C-722.6453125 501.55032227 -722.42294922 500.70953125 -722.19384766 499.84326172 C-709.62493769 453.18821831 -686.65789458 408.34303587 -656.86767578 370.39111328 C-656.23990234 369.58287109 -655.61212891 368.77462891 -654.96533203 367.94189453 C-647.35884416 358.28212159 -639.4850515 348.71970735 -630.64111328 340.16455078 C-628.87460939 338.39804689 -627.28281104 336.55645786 -625.68017578 334.64111328 C-620.5701859 328.72367579 -614.68240838 323.59686513 -608.86767578 318.39111328 C-608.2951709 317.87387695 -607.72266602 317.35664063 -607.1328125 316.82373047 C-592.11624328 303.29658213 -575.88140829 291.28291547 -558.86767578 280.39111328 C-558.06668457 279.87758301 -557.26569336 279.36405273 -556.44042969 278.83496094 C-550.88762739 275.28062846 -545.32213566 271.7465377 -539.75244141 268.21875 C-535.01692362 265.21857345 -530.28551334 262.21194925 -525.55517578 259.20361328 C-524.17217285 258.32406982 -524.17217285 258.32406982 -522.76123047 257.42675781 C-516.66899281 253.5481998 -510.59759672 249.63893859 -504.5390625 245.70800781 C-484.84471386 232.93965113 -465.015989 220.37754405 -445.20361328 207.79345703 C-436.29338016 202.1318264 -427.39511908 196.4540421 -418.5390625 190.70800781 C-403.29090024 180.822229 -387.95236281 171.0758889 -372.61499023 161.3293457 C-367.18320717 157.87428318 -361.76741656 154.39601602 -356.36767578 150.89111328 C-345.30066241 143.70821505 -334.1526054 136.65251158 -323.01513672 129.57958984 C-313.09900438 123.28109149 -303.19182752 116.97130327 -293.33911133 110.57397461 C-286.59586386 106.20150595 -279.81094061 101.89525757 -273.02661133 97.58691406 C-267.39344767 94.00676703 -261.77747599 90.40204001 -256.18017578 86.76611328 C-248.72371155 81.92534623 -241.21736615 77.16673694 -233.69189453 72.43408203 C-230.47598161 70.41054969 -227.27131226 68.37078351 -224.07470703 66.31689453 C-209.13348325 56.74051871 -193.80491569 48.09191517 -177.83447266 40.35009766 C-175.89515422 39.40451141 -173.96734979 38.43805063 -172.03955078 37.46923828 C-119.15176295 11.29484465 -58.66853772 -0.26228934 0 0 Z " fill="#FE3E00" transform="translate(1011.86767578125,119.60888671875)"/>
<path d="M0 0 C0.57169922 0.46873535 1.14339844 0.9374707 1.73242188 1.42041016 C14.73286834 12.12729959 26.63673408 23.69680048 37 37 C37.87857473 38.08986059 38.75886862 39.17833692 39.640625 40.265625 C46.29154278 48.51641187 52.30818166 57.06377467 58 66 C58.37334473 66.57766113 58.74668945 67.15532227 59.13134766 67.75048828 C73.77553269 90.53392039 83.81540365 115.70652824 90 142 C90.28617188 143.19238281 90.57234375 144.38476562 90.8671875 145.61328125 C102.01947925 196.37345453 94.79061592 244.46542328 78 293 C73.12372511 291.43062417 69.60736952 288.60244813 65.625 285.5 C35.75921318 262.71442027 2.66432983 244.35774177 -32 230 C-32.92683594 229.59652344 -33.85367188 229.19304687 -34.80859375 228.77734375 C-50.74370925 221.90380572 -67.35575745 216.833913 -84 212 C-83.9685791 211.19594727 -83.9371582 210.39189453 -83.90478516 209.56347656 C-83.33824744 192.80639056 -83.43801372 177.74184757 -90 162 C-90.46792969 160.84628906 -90.93585937 159.69257813 -91.41796875 158.50390625 C-99.81133469 140.0479055 -116.35306107 126.78592394 -135 119.625 C-145.4032988 115.83611361 -155.94410723 114.34880213 -167 115 C-168.19109375 115.06832031 -169.3821875 115.13664063 -170.609375 115.20703125 C-189.76566453 116.92958298 -204.42661393 125.63578955 -220.18554688 136.13720703 C-224.74856251 139.1573154 -229.37626135 142.07408863 -234 145 C-235.8375613 146.16876518 -237.67480085 147.33803637 -239.51171875 148.5078125 C-243.13876108 150.81598886 -246.76640636 153.12321318 -250.39453125 155.4296875 C-264.2806905 164.25892129 -278.14331892 173.12458981 -292 182 C-304.88887764 190.25551771 -317.78218947 198.50363919 -330.69873047 206.71582031 C-341.81489358 213.7859316 -352.90648014 220.89443564 -364 228 C-376.88665276 236.25409264 -389.77738408 244.50135689 -402.69213867 252.71142578 C-409.63653392 257.1278038 -416.56985227 261.56130415 -423.5 266 C-432.22080933 271.58559813 -440.95165051 277.15504052 -449.69140625 282.7109375 C-456.63602297 287.12751389 -463.56960521 291.56114591 -470.5 296 C-478.32560366 301.01222713 -486.15753619 306.01419474 -494 311 C-510.63580747 321.58146005 -510.63580747 321.58146005 -527.234375 332.22119141 C-528.95422568 333.32737361 -530.67535038 334.43158079 -532.3984375 335.53271484 C-544.75914467 343.4450177 -554.85418904 351.58375235 -563 364 C-563.50273438 364.76441406 -564.00546875 365.52882813 -564.5234375 366.31640625 C-574.08091204 383.68673696 -573.86170809 402.25606518 -569 421 C-562.87759323 441.09405299 -549.242986 457.21915446 -531.0078125 467.43359375 C-526.76038588 469.64556527 -522.53820138 471.47550311 -518 473 C-517.18144531 473.2990625 -516.36289062 473.598125 -515.51953125 473.90625 C-495.47901926 480.15264335 -472.66566618 476.07307254 -454.33154297 466.63769531 C-445.14053309 461.62030424 -436.49898026 455.63647917 -427.78955078 449.84130859 C-423.77148836 447.189092 -419.70413287 444.61942416 -415.625 442.0625 C-408.28888874 437.45315426 -400.98202911 432.79988232 -393.6875 428.125 C-384.90712642 422.49855366 -376.11693257 416.88804119 -367.31591797 411.29394531 C-361.38030805 407.51936361 -355.45301351 403.73202961 -349.53076172 399.93652344 C-346.34384547 397.89507898 -343.15443668 395.85757152 -339.96484375 393.8203125 C-336.29972713 391.47804565 -332.64550577 389.12082581 -329.00390625 386.7421875 C-312.5976393 376.09085522 -295.43397698 366.64667362 -277 360 C-275.65861476 359.49673139 -274.31747807 358.99279993 -272.9765625 358.48828125 C-262.49971589 354.60344307 -251.91280688 351.40694061 -241 349 C-240.1244043 348.80100098 -239.24880859 348.60200195 -238.34667969 348.39697266 C-205.60062804 341.3253545 -167.69971969 342.0796036 -135 349 C-134.06784668 349.18723633 -133.13569336 349.37447266 -132.17529297 349.56738281 C-82.51388614 359.69379752 -37.3687732 385.01188253 -1 420 C-0.43007324 420.5480127 0.13985352 421.09602539 0.72705078 421.66064453 C8.36044295 429.04666779 15.49051735 436.58646393 22 445 C22.79792969 446.00417969 23.59585938 447.00835938 24.41796875 448.04296875 C34.58524786 460.91795691 43.25581434 474.5482239 51 489 C51.33741211 489.61891113 51.67482422 490.23782227 52.02246094 490.87548828 C70.48444905 524.94461073 79.24435825 563.79467043 79.1875 602.375 C79.18709213 603.42081741 79.18709213 603.42081741 79.18667603 604.48776245 C79.14838381 625.95866932 76.9887984 646.32712862 71 667 C70.690625 668.11117187 70.38125 669.22234375 70.0625 670.3671875 C67.08554403 680.99585061 64.03191365 691.16722996 59 701 C58.37765419 702.26176425 57.75780549 703.52476365 57.140625 704.7890625 C46.82069788 725.79516021 34.65134899 744.56571753 19 762 C18.51611816 762.5455957 18.03223633 763.09119141 17.53369141 763.65332031 C12.02507989 769.8604675 6.40993321 775.7073946 0 781 C-0.85722656 781.74507812 -1.71445313 782.49015625 -2.59765625 783.2578125 C-16.37697615 795.08985301 -31.82519311 804.53077731 -47.15332031 814.20166016 C-51.77659002 817.12232951 -56.38778185 820.06192241 -61 823 C-62.83327298 824.1667615 -64.66660638 825.33342807 -66.5 826.5 C-67.86125 827.36625 -67.86125 827.36625 -69.25 828.25 C-72 830 -74.75 831.75 -77.5 833.5 C-78.4077417 834.07766113 -79.3154834 834.65532227 -80.25073242 835.25048828 C-82.08159753 836.41556948 -83.9124894 837.58060864 -85.7434082 838.74560547 C-90.36472713 841.68618321 -94.9855592 844.62752092 -99.60546875 847.5703125 C-109.00023229 853.55356973 -118.4031591 859.52327876 -127.82373047 865.46582031 C-136.63663131 871.02780522 -145.42534967 876.62769145 -154.21484375 882.2265625 C-156.94457316 883.96470718 -159.67523185 885.70138106 -162.40625 887.4375 C-172.11410105 893.60955334 -181.81257167 899.79593465 -191.5 906 C-206.91168864 915.86927362 -222.34592028 925.70219486 -237.82446289 935.46630859 C-246.63269231 941.02524742 -255.41680725 946.62199481 -264.20166016 952.21777344 C-268.80023764 955.14654814 -273.40019715 958.07315036 -278 961 C-278.90943359 961.57878906 -279.81886719 962.15757812 -280.75585938 962.75390625 C-285.30144228 965.64684278 -289.8474921 968.53904031 -294.39453125 971.4296875 C-304.16944266 977.64503072 -313.93412932 983.87590097 -323.6875 990.125 C-331.83596869 995.34465523 -339.99121194 1000.55280943 -348.18481445 1005.70141602 C-352.02582949 1008.11524043 -355.85267502 1010.54704876 -359.65625 1013.01953125 C-388.11258135 1031.43366664 -418.59347356 1045.58423377 -452 1052 C-453.50820313 1052.30357422 -453.50820313 1052.30357422 -455.046875 1052.61328125 C-458.02483187 1053.16428739 -460.99779723 1053.60065711 -464 1054 C-464.64485352 1054.09023437 -465.28970703 1054.18046875 -465.95410156 1054.2734375 C-478.55495998 1055.96959671 -491.12005126 1056.18845128 -503.8125 1056.1875 C-504.59301727 1056.18840637 -505.37353455 1056.18931274 -506.17770386 1056.19024658 C-535.42919632 1056.18640543 -563.39983158 1051.97596449 -591 1042 C-592.18722656 1041.59523438 -593.37445312 1041.19046875 -594.59765625 1040.7734375 C-627.54370207 1029.29217432 -657.05776365 1010.48961313 -682.72265625 987.0546875 C-684.6737616 985.29434202 -686.66013544 983.60815677 -688.6875 981.9375 C-691.78541828 979.29959743 -694.38972085 976.39134749 -697.015625 973.2890625 C-698.42354477 971.66496607 -699.87678391 970.07966722 -701.359375 968.5234375 C-719.6623707 949.29987693 -734.17895728 926.68740159 -746 903 C-746.45632813 902.09894531 -746.91265625 901.19789063 -747.3828125 900.26953125 C-758.53483018 877.04231561 -764.23004253 852.32567539 -768 827 C-768.176521 825.94965576 -768.35304199 824.89931152 -768.53491211 823.81713867 C-769.11166671 819.08351233 -769.19972193 814.424625 -769.23828125 809.66015625 C-769.24816574 808.66959229 -769.25805023 807.67902832 -769.26823425 806.65844727 C-769.58409053 766.80249049 -769.58409053 766.80249049 -765 748 C-764.69461364 746.67672972 -764.39138003 745.35296151 -764.08984375 744.02880859 C-760.93434811 730.18321635 -757.75231857 716.40381342 -753 703 C-749.740905 703.62511335 -747.55849473 704.77657941 -744.83984375 706.66015625 C-744.0523877 707.20220703 -743.26493164 707.74425781 -742.45361328 708.30273438 C-741.6232959 708.88345703 -740.79297852 709.46417969 -739.9375 710.0625 C-739.07624512 710.65740234 -738.21499023 711.25230469 -737.32763672 711.86523438 C-733.03723899 714.83930604 -728.79921293 717.8642827 -724.625 721 C-711.28600088 730.80261331 -696.66320887 739.00729929 -682.11035156 746.85449219 C-680.09166684 747.95024285 -678.08801894 749.0695834 -676.0859375 750.1953125 C-656.26693167 761.19600741 -635.08291759 769.42903547 -613.49462891 776.21142578 C-609.64733673 777.4275888 -605.82497673 778.71574911 -602 780 C-599.81263241 780.72956379 -597.62512808 781.45871767 -595.4375 782.1875 C-593.625 782.79166667 -591.8125 783.39583333 -590 784 C-590.02618408 784.88558594 -590.05236816 785.77117188 -590.0793457 786.68359375 C-591.09268382 809.89794024 -591.09268382 809.89794024 -585 832 C-584.22076172 833.81564453 -584.22076172 833.81564453 -583.42578125 835.66796875 C-575.09727431 854.24903568 -559.38824997 868.5761315 -540.6875 876.3828125 C-537.8011074 877.37685077 -534.959109 878.25051439 -532 879 C-531.35490479 879.17442627 -530.70980957 879.34885254 -530.04516602 879.52856445 C-523.9015144 881.070471 -518.00507363 881.34906003 -511.6875 881.3125 C-510.66785156 881.30686035 -509.64820313 881.3012207 -508.59765625 881.29541016 C-501.33404979 881.17814285 -494.85745646 880.52492121 -488 878 C-486.83855469 877.5978125 -485.67710937 877.195625 -484.48046875 876.78125 C-474.93789979 873.32352758 -466.51387742 868.47012307 -458 863 C-457.36964844 862.5968457 -456.73929688 862.19369141 -456.08984375 861.77832031 C-452.66081522 859.58062475 -449.24376455 857.36505842 -445.83203125 855.140625 C-440.1788414 851.45837031 -434.49607753 847.82261333 -428.8125 844.1875 C-427.74555908 843.50502197 -426.67861816 842.82254395 -425.5793457 842.11938477 C-414.16879003 834.82430907 -402.74100069 827.55639346 -391.31152344 820.29101562 C-376.52269506 810.88920157 -361.75682071 801.451963 -347 792 C-330.45475705 781.40252597 -313.89315049 770.83146145 -297.31152344 760.29101562 C-282.52269506 750.88920157 -267.75682071 741.451963 -253 732 C-240.11334724 723.74590736 -227.22261592 715.49864311 -214.30786133 707.28857422 C-206.30146063 702.1968001 -198.31006843 697.08173867 -190.32080078 691.96313477 C-184.41741826 688.18232188 -178.50658258 684.41370412 -172.58691406 680.65844727 C-163.94376646 675.17361224 -155.33012569 669.6454775 -146.75 664.0625 C-145.82171387 663.45978271 -144.89342773 662.85706543 -143.93701172 662.23608398 C-124.13713938 649.31698029 -110.12960867 636.62398534 -104 613 C-100.30414022 592.63746047 -103.52439935 571.54660406 -115.25 554.3125 C-127.52441382 536.98827529 -146.06827289 525.01120566 -167.03857422 521.39257812 C-171.88593088 520.74999366 -176.67941952 520.71064677 -181.5625 520.75 C-182.52607422 520.74226562 -183.48964844 520.73453125 -184.48242188 520.7265625 C-204.66776094 520.78100711 -221.78260557 530.13817321 -238.046875 541.3125 C-242.31380006 544.24035978 -246.67941025 547.00016314 -251.0625 549.75 C-252.6823379 550.76815562 -254.30212861 551.78638632 -255.921875 552.8046875 C-256.75009766 553.32514648 -257.57832031 553.84560547 -258.43164062 554.38183594 C-262.90141766 557.19796542 -267.35674364 560.03675775 -271.8125 562.875 C-272.7310376 563.45991211 -273.6495752 564.04482422 -274.59594727 564.64746094 C-276.46458132 565.83746605 -278.33315209 567.02757052 -280.20166016 568.21777344 C-284.80023764 571.14654814 -289.40019715 574.07315036 -294 577 C-294.90943359 577.57878906 -295.81886719 578.15757812 -296.75585938 578.75390625 C-301.30144228 581.64684278 -305.8474921 584.53904031 -310.39453125 587.4296875 C-311.73294067 588.2808313 -311.73294067 588.2808313 -313.09838867 589.14916992 C-314.90948184 590.30079515 -316.72084312 591.45199885 -318.5324707 592.6027832 C-323.45776013 595.7343617 -328.37188795 598.88215596 -333.2734375 602.05078125 C-345.66128131 610.04862984 -358.10310136 617.84596071 -371 625 C-371.92167969 625.51820313 -372.84335937 626.03640625 -373.79296875 626.5703125 C-380.18905093 629.97727085 -387.00886293 632.23957293 -393.8515625 634.5703125 C-398.68458568 636.21758451 -403.44919898 638.03168186 -408.22265625 639.84375 C-414.13965708 641.95427259 -420.1906657 643.11084678 -426.3515625 644.25390625 C-429.94404549 644.92970479 -429.94404549 644.92970479 -433.15234375 645.95703125 C-495.76873354 662.93020493 -566.97176817 646.17343076 -622.1640625 615.1484375 C-649.62248934 599.14199117 -675.6568561 577.26868446 -695 552 C-695.98825473 550.76195912 -696.97794972 549.52506713 -697.96875 548.2890625 C-710.28777451 532.7568645 -720.69933072 516.00506432 -729 498 C-729.50805176 496.90776123 -729.50805176 496.90776123 -730.02636719 495.79345703 C-742.77516967 468.24546863 -752.12753983 438.06482561 -752.16796875 407.4453125 C-752.17129715 406.54489227 -752.17462555 405.64447205 -752.17805481 404.71676636 C-752.18309441 402.81574001 -752.18546406 400.9147049 -752.18530273 399.01367188 C-752.18746744 396.16781148 -752.20559463 393.32235339 -752.22460938 390.4765625 C-752.26039597 378.83622672 -751.55048214 367.53333297 -750 356 C-749.89018799 355.07815918 -749.78037598 354.15631836 -749.66723633 353.20654297 C-743.96641509 305.60953411 -719.62182748 262.30165458 -687 228 C-686.19320801 227.15018555 -686.19320801 227.15018555 -685.37011719 226.28320312 C-667.28796881 207.37581516 -645.86601765 193.69086794 -623.84667969 179.79833984 C-619.22340985 176.87767041 -614.61223483 173.93805161 -610 171 C-608.17062653 169.83585325 -606.34119936 168.67179087 -604.51171875 167.5078125 C-600.80542555 165.14932214 -597.09976197 162.78984664 -593.39453125 160.4296875 C-584.77225689 154.93840662 -576.14592279 149.45398721 -567.5 144 C-552.79693582 134.72374515 -538.14017942 125.37512876 -523.5 116 C-508.08826839 106.13079252 -492.65408035 96.29780554 -477.17553711 86.53369141 C-468.36730769 80.97475258 -459.58319275 75.37800519 -450.79833984 69.78222656 C-446.19976236 66.85345186 -441.59980285 63.92684964 -437 61 C-436.09056641 60.42121094 -435.18113281 59.84242188 -434.24414062 59.24609375 C-429.69855772 56.35315722 -425.1525079 53.46095969 -420.60546875 50.5703125 C-410.89391516 44.39533623 -401.19138041 38.20659636 -391.5 32 C-376.09054339 22.13215573 -360.6591455 12.29965908 -345.18212891 2.53808594 C-340.05002178 -0.70042476 -334.92629444 -3.95183415 -329.80786133 -7.21191406 C-327.93852301 -8.40233523 -326.06856978 -9.59179134 -324.19799805 -10.78027344 C-319.80498864 -13.57186175 -315.41871123 -16.37243277 -311.05078125 -19.203125 C-283.5468535 -36.95540426 -253.25918514 -50.62517429 -221 -57 C-220.08992187 -57.18175781 -219.17984375 -57.36351562 -218.2421875 -57.55078125 C-215.16867333 -58.11154776 -212.09461853 -58.57009318 -209 -59 C-207.70191406 -59.18691406 -206.40382813 -59.37382812 -205.06640625 -59.56640625 C-131.76153623 -69.01253364 -56.83596218 -46.9736385 0 0 Z " fill="#FFFEFE" transform="translate(1196,345)"/>
</svg>
